<svg id="Layer_1" data-name="Layer 1" xmlns="http://www.w3.org/2000/svg" viewBox="0 0 287.10322 331.06504"><defs><style>.cls-1{fill:#f7f8f9;stroke:#5384c4;stroke-miterlimit:10;stroke-width:23px;}.cls-2{fill:#755fa9;}.cls-3{fill:#5384c4;}</style></defs><polygon class="cls-1" points="143.533 13.293 11.5 89.86 11.5 241.589 143.755 317.787 275.603 241.552 275.603 89.823 143.533 13.293"/><polygon class="cls-2" points="144.932 72.271 145.244 35.76 254.772 98.802 254.772 131.059 144.932 72.271"/><polygon class="cls-3" points="145.319 293.885 145.319 95.864 226.152 136.473 226.152 170.895 173.166 145.756 173.166 278.027 145.319 293.885"/><path class="cls-2" d="M240.854,518.26162,207.39232,389.35808V498.10856l-22.75724-12.897v-128.935l29.60168-17.11109,27.37774,99.24432,13.68887-122.81959,40.30612-24.33578V548.16035L272.79471,535.232V377.57044L253.02189,525.10606Z" transform="translate(-153.94839 -255.46748)"/></svg>