<svg xmlns="http://www.w3.org/2000/svg" xmlns:xlink="http://www.w3.org/1999/xlink" viewBox="0 0 491.14929 328.1147"><defs><style>.cls-1{isolation:isolate;}.cls-2{fill:url(#linear-gradient);}.cls-3{fill:url(#linear-gradient-2);}.cls-4{fill:url(#linear-gradient-3);}.cls-5{fill:url(#linear-gradient-4);}.cls-6{fill:url(#linear-gradient-5);}.cls-7{fill:url(#linear-gradient-6);}.cls-8{fill:url(#linear-gradient-7);}.cls-11,.cls-9{fill:#fff;}.cls-9{mix-blend-mode:overlay;}.cls-78,.cls-9{opacity:0.2;}.cls-10{fill:url(#linear-gradient-8);}.cls-12{fill:url(#linear-gradient-9);}.cls-13{fill:url(#linear-gradient-10);}.cls-14{fill:url(#linear-gradient-11);}.cls-15{fill:url(#linear-gradient-12);}.cls-16{fill:url(#linear-gradient-13);}.cls-17{fill:url(#linear-gradient-14);}.cls-18{fill:url(#linear-gradient-15);}.cls-19{fill:url(#linear-gradient-16);}.cls-20{fill:url(#linear-gradient-17);}.cls-21{fill:url(#linear-gradient-18);}.cls-22{fill:url(#linear-gradient-19);}.cls-23{fill:url(#linear-gradient-20);}.cls-24{fill:url(#linear-gradient-21);}.cls-25{fill:url(#linear-gradient-22);}.cls-26{fill:#edf7ff;}.cls-27,.cls-30,.cls-93{opacity:0.5;}.cls-27{fill:url(#linear-gradient-23);}.cls-28,.cls-42,.cls-76,.cls-94{opacity:0.3;}.cls-28{fill:url(#linear-gradient-24);}.cls-29{fill:url(#linear-gradient-25);}.cls-30{fill:url(#linear-gradient-26);}.cls-31{fill:url(#linear-gradient-27);}.cls-32{fill:url(#linear-gradient-28);}.cls-33{fill:url(#linear-gradient-29);}.cls-34{fill:url(#linear-gradient-30);}.cls-35{fill:url(#linear-gradient-31);}.cls-36{fill:url(#linear-gradient-32);}.cls-37{fill:url(#linear-gradient-33);}.cls-38{fill:url(#linear-gradient-34);}.cls-39{fill:url(#linear-gradient-35);}.cls-40{fill:url(#linear-gradient-36);}.cls-41{fill:url(#linear-gradient-37);}.cls-42,.cls-43{mix-blend-mode:screen;}.cls-42{fill:url(#linear-gradient-38);}.cls-43{opacity:0.6;fill:url(#linear-gradient-39);}.cls-44{fill:url(#linear-gradient-40);}.cls-45{fill:url(#linear-gradient-41);}.cls-46{fill:url(#linear-gradient-42);}.cls-47,.cls-55{mix-blend-mode:color-burn;}.cls-47{fill:url(#linear-gradient-43);}.cls-104,.cls-114,.cls-48,.cls-49,.cls-50,.cls-75,.cls-90,.cls-92{fill:none;}.cls-104,.cls-114,.cls-48,.cls-49,.cls-50,.cls-75{stroke-miterlimit:10;}.cls-48,.cls-49,.cls-50{stroke-width:1.0668px;}.cls-48{stroke:url(#linear-gradient-44);}.cls-49{stroke:url(#linear-gradient-45);}.cls-50{stroke:url(#linear-gradient-46);}.cls-51{fill:#efcdaf;}.cls-52{fill:url(#linear-gradient-47);}.cls-53{fill:url(#linear-gradient-48);}.cls-54{fill:url(#linear-gradient-49);}.cls-55{opacity:0.35;fill:url(#linear-gradient-50);}.cls-56{fill:url(#linear-gradient-51);}.cls-57{fill:url(#linear-gradient-52);}.cls-58{fill:url(#linear-gradient-53);}.cls-59{fill:url(#linear-gradient-54);}.cls-60{fill:url(#linear-gradient-55);}.cls-61{fill:url(#linear-gradient-56);}.cls-62{fill:url(#linear-gradient-57);}.cls-63{fill:url(#linear-gradient-58);}.cls-64{fill:url(#linear-gradient-59);}.cls-65{fill:url(#linear-gradient-60);}.cls-66{fill:#e8a77d;}.cls-67{fill:url(#linear-gradient-61);}.cls-68{fill:url(#linear-gradient-62);}.cls-69{fill:url(#linear-gradient-63);}.cls-70{fill:#22256f;}.cls-71{fill:url(#linear-gradient-64);}.cls-72{fill:url(#linear-gradient-65);}.cls-73{fill:url(#linear-gradient-66);}.cls-74{fill:url(#linear-gradient-67);}.cls-75,.cls-90,.cls-92{stroke:#fff;stroke-linecap:round;}.cls-75{stroke-width:1.06483px;}.cls-76,.cls-77,.cls-78{fill:#ace2f9;}.cls-77,.cls-95{opacity:0.1;}.cls-79{fill:url(#linear-gradient-68);}.cls-80{fill:url(#linear-gradient-69);}.cls-81{fill:url(#linear-gradient-70);}.cls-82{fill:url(#linear-gradient-71);}.cls-83{fill:url(#linear-gradient-72);}.cls-84{fill:url(#linear-gradient-73);}.cls-85{fill:url(#linear-gradient-74);}.cls-86{fill:url(#linear-gradient-75);}.cls-87{fill:url(#linear-gradient-76);}.cls-88{fill:url(#linear-gradient-77);}.cls-89{fill:#98e7f4;}.cls-90,.cls-92{stroke-linejoin:round;}.cls-90{stroke-width:1.57697px;}.cls-91,.cls-93,.cls-94,.cls-95{fill:#bdf3ff;}.cls-92{stroke-width:1.46845px;}.cls-96{fill:url(#linear-gradient-78);}.cls-97{fill:url(#linear-gradient-79);}.cls-98{fill:url(#linear-gradient-80);}.cls-99{fill:url(#linear-gradient-81);}.cls-100{fill:url(#linear-gradient-82);}.cls-101{fill:url(#linear-gradient-83);}.cls-102{fill:url(#linear-gradient-84);}.cls-103{fill:url(#linear-gradient-85);}.cls-104{stroke:#edf7ff;stroke-width:0.51161px;}.cls-105{fill:url(#linear-gradient-86);}.cls-106{fill:url(#linear-gradient-87);}.cls-107{fill:url(#linear-gradient-88);}.cls-108{fill:url(#linear-gradient-89);}.cls-109{fill:url(#linear-gradient-90);}.cls-110{fill:url(#linear-gradient-91);}.cls-111{fill:url(#linear-gradient-92);}.cls-112{fill:url(#linear-gradient-93);}.cls-113{fill:url(#linear-gradient-94);}.cls-114{stroke:url(#linear-gradient-95);}</style><linearGradient id="linear-gradient" x1="179.343" y1="136.7093" x2="207.94681" y2="136.7093" gradientUnits="userSpaceOnUse"><stop offset="0" stop-color="#4e7fbd" stop-opacity="0.3"/><stop offset="1" stop-color="#4e7fbd"/></linearGradient><linearGradient id="linear-gradient-2" x1="409.69687" y1="222.20399" x2="438.30067" y2="222.20399" gradientTransform="matrix(0.78517, 0.50253, -0.60893, 0.52007, 72.49214, -187.05408)" xlink:href="#linear-gradient"/><linearGradient id="linear-gradient-3" x1="265.28966" y1="209.2514" x2="293.89347" y2="209.2514" gradientTransform="matrix(1.31052, 0.19597, 0.71532, 1.59952, -356.08843, -228.32144)" xlink:href="#linear-gradient"/><linearGradient id="linear-gradient-4" x1="324.29565" y1="163.0185" x2="352.89945" y2="163.0185" gradientTransform="matrix(1.23737, 0.63083, 0.29454, 1.85948, -265.2933, -418.42739)" xlink:href="#linear-gradient"/><linearGradient id="linear-gradient-5" x1="354.46935" y1="158.53128" x2="375.18889" y2="158.53128" gradientTransform="matrix(0.85588, 1.09384, -0.51717, 1.81024, 6.90528, -577.89376)" xlink:href="#linear-gradient"/><linearGradient id="linear-gradient-6" x1="377.14304" y1="133.07959" x2="397.86258" y2="133.07959" gradientTransform="matrix(0.23346, 1.78808, -1.42005, 2.26947, 373.25209, -898.18362)" xlink:href="#linear-gradient"/><linearGradient id="linear-gradient-7" x1="425.68798" y1="111.33749" x2="446.40753" y2="111.33749" gradientTransform="matrix(-0.57143, 1.71032, -2.26907, 1.42069, 816.47109, -762.99814)" xlink:href="#linear-gradient"/><linearGradient id="linear-gradient-8" x1="349.74574" y1="200.6598" x2="406.37968" y2="335.22946" gradientTransform="translate(572.59997 -151.16849) rotate(80.74842)" gradientUnits="userSpaceOnUse"><stop offset="0" stop-color="#2b398e"/><stop offset="0.15189" stop-color="#294093"/><stop offset="0.36505" stop-color="#2252a2"/><stop offset="0.61435" stop-color="#1770bb"/><stop offset="0.88898" stop-color="#0799dd"/><stop offset="1" stop-color="#00aced"/></linearGradient><linearGradient id="linear-gradient-9" x1="281.82047" y1="-4.40911" x2="328.56482" y2="42.33524" gradientUnits="userSpaceOnUse"><stop offset="0" stop-color="#f9dd68"/><stop offset="1" stop-color="#f9a942"/></linearGradient><linearGradient id="linear-gradient-10" x1="433.25396" y1="92.12329" x2="449.09724" y2="76.28001" gradientUnits="userSpaceOnUse"><stop offset="0" stop-color="#10274a"/><stop offset="1" stop-color="#00347f"/></linearGradient><linearGradient id="linear-gradient-11" x1="427.34799" y1="97.06444" x2="455.73284" y2="125.4493" xlink:href="#linear-gradient-10"/><linearGradient id="linear-gradient-12" x1="440.22811" y1="101.71828" x2="459.62976" y2="121.11992" gradientUnits="userSpaceOnUse"><stop offset="0" stop-color="#fff"/><stop offset="1" stop-color="#79d3fd"/></linearGradient><linearGradient id="linear-gradient-13" x1="431.23409" y1="109.36287" x2="435.87973" y2="114.0085" xlink:href="#linear-gradient-10"/><linearGradient id="linear-gradient-14" x1="432.27585" y1="110.4046" x2="434.91069" y2="113.03944" xlink:href="#linear-gradient-12"/><linearGradient id="linear-gradient-15" x1="293.27788" y1="155.09498" x2="317.33855" y2="179.15564" xlink:href="#linear-gradient-9"/><linearGradient id="linear-gradient-16" x1="293.08056" y1="155.29234" x2="317.14113" y2="179.35291" xlink:href="#linear-gradient-9"/><linearGradient id="linear-gradient-17" x1="-185.01161" y1="336.48709" x2="-214.05505" y2="336.48709" gradientTransform="matrix(1, 0, 0, -1, 739.58728, 672.97418)" gradientUnits="userSpaceOnUse"><stop offset="0" stop-color="#00006c"/><stop offset="1" stop-color="#5793fb"/></linearGradient><linearGradient id="linear-gradient-18" x1="-195.58455" y1="395.19374" x2="-195.58455" y2="282.25165" gradientTransform="matrix(1, 0, 0, -1, 734.04191, 672.97418)" gradientUnits="userSpaceOnUse"><stop offset="0" stop-color="#5793fb"/><stop offset="0.99462" stop-color="#00009a"/></linearGradient><linearGradient id="linear-gradient-19" x1="-202.16873" y1="309.12705" x2="-202.16873" y2="235.44692" gradientTransform="matrix(-1, 0, 0, 1, 342.8728, 0)" xlink:href="#linear-gradient-17"/><linearGradient id="linear-gradient-20" x1="-200.30561" y1="307.03369" x2="-200.30561" y2="234.993" gradientTransform="matrix(-1, 0, 0, 1, 342.8728, 0)" gradientUnits="userSpaceOnUse"><stop offset="0" stop-color="#a6e5d4"/><stop offset="1" stop-color="#79d3fd"/></linearGradient><linearGradient id="linear-gradient-21" x1="499.87839" y1="269.58731" x2="586.47845" y2="269.58731" gradientUnits="userSpaceOnUse"><stop offset="0" stop-color="#2c89fb"/><stop offset="1" stop-color="#0059ff"/></linearGradient><linearGradient id="linear-gradient-22" x1="525.38959" y1="260.31509" x2="555.7818" y2="260.31509" gradientTransform="matrix(1, 0, 0, 1, 0, 0)" xlink:href="#linear-gradient-20"/><linearGradient id="linear-gradient-23" x1="557.24232" y1="281.18777" x2="573.92565" y2="281.18777" gradientTransform="matrix(1, 0, 0, 1, 0, 0)" xlink:href="#linear-gradient-20"/><linearGradient id="linear-gradient-24" x1="529.30781" y1="287.96342" x2="563.66214" y2="287.96342" gradientTransform="matrix(1, 0, 0, 1, 0, 0)" xlink:href="#linear-gradient-20"/><linearGradient id="linear-gradient-25" x1="532.57885" y1="288.23447" x2="560.41925" y2="288.23447" gradientTransform="matrix(1, 0, 0, 1, 0, 0)" xlink:href="#linear-gradient-20"/><linearGradient id="linear-gradient-26" x1="561.26118" y1="249.84631" x2="577.95747" y2="249.84631" gradientTransform="matrix(1, 0, 0, 1, 0, 0)" xlink:href="#linear-gradient-20"/><linearGradient id="linear-gradient-27" x1="-40.79417" y1="257.21665" x2="-32.19087" y2="257.21665" gradientTransform="matrix(-1, 0, -0.3168, 1, 613.1909, 0)" gradientUnits="userSpaceOnUse"><stop offset="0" stop-color="#fff"/><stop offset="1" stop-color="#e2f5ff"/></linearGradient><linearGradient id="linear-gradient-28" x1="-41.03965" y1="258.76589" x2="-32.43631" y2="258.76589" xlink:href="#linear-gradient-27"/><linearGradient id="linear-gradient-29" x1="-41.28508" y1="260.31513" x2="-32.68165" y2="260.31513" xlink:href="#linear-gradient-27"/><linearGradient id="linear-gradient-30" x1="-41.53045" y1="261.86433" x2="-37.22362" y2="261.86433" xlink:href="#linear-gradient-27"/><linearGradient id="linear-gradient-31" x1="2.91698" y1="283.8054" x2="11.52034" y2="283.8054" xlink:href="#linear-gradient-27"/><linearGradient id="linear-gradient-32" x1="2.67157" y1="285.3546" x2="11.27501" y2="285.3546" xlink:href="#linear-gradient-27"/><linearGradient id="linear-gradient-33" x1="2.42616" y1="286.90384" x2="11.02953" y2="286.90384" xlink:href="#linear-gradient-27"/><linearGradient id="linear-gradient-34" x1="2.18074" y1="288.45304" x2="6.4877" y2="288.45304" xlink:href="#linear-gradient-27"/><linearGradient id="linear-gradient-35" x1="10.45929" y1="248.71019" x2="19.06264" y2="248.71019" xlink:href="#linear-gradient-27"/><linearGradient id="linear-gradient-36" x1="10.2138" y1="250.25943" x2="18.81716" y2="250.25943" xlink:href="#linear-gradient-27"/><linearGradient id="linear-gradient-37" x1="9.96838" y1="251.80867" x2="14.27535" y2="251.80867" xlink:href="#linear-gradient-27"/><linearGradient id="linear-gradient-38" x1="238.82286" y1="230.40694" x2="238.82286" y2="94.2253" gradientUnits="userSpaceOnUse"><stop offset="0" stop-color="#8affff"/><stop offset="1" stop-color="#79d3fd" stop-opacity="0"/></linearGradient><linearGradient id="linear-gradient-39" x1="233.57812" y1="234.48817" x2="233.57812" y2="9.72702" xlink:href="#linear-gradient-38"/><linearGradient id="linear-gradient-40" x1="238.82286" y1="346.30405" x2="238.82286" y2="240.63428" gradientUnits="userSpaceOnUse"><stop offset="0" stop-color="#8affff"/><stop offset="1" stop-color="#423bfd"/></linearGradient><linearGradient id="linear-gradient-41" x1="238.8229" y1="327.41981" x2="238.8229" y2="245.11894" gradientUnits="userSpaceOnUse"><stop offset="0" stop-color="#8affff"/><stop offset="1" stop-color="#79d3fd"/></linearGradient><linearGradient id="linear-gradient-42" x1="193.07819" y1="236.46819" x2="284.56753" y2="236.46819" xlink:href="#linear-gradient-41"/><linearGradient id="linear-gradient-43" x1="195.88374" y1="244.76947" x2="303.82765" y2="244.76947" gradientUnits="userSpaceOnUse"><stop offset="0" stop-color="#2e3e9d"/><stop offset="1" stop-color="#79d3fd"/></linearGradient><linearGradient id="linear-gradient-44" x1="228.23725" y1="327.65364" x2="228.23725" y2="242.52944" gradientUnits="userSpaceOnUse"><stop offset="0" stop-color="#79d3fd"/><stop offset="1" stop-color="#fff"/></linearGradient><linearGradient id="linear-gradient-45" x1="238.8229" y1="327.65364" x2="238.8229" y2="242.52944" xlink:href="#linear-gradient-44"/><linearGradient id="linear-gradient-46" x1="249.40847" y1="327.65364" x2="249.40847" y2="242.52944" xlink:href="#linear-gradient-44"/><linearGradient id="linear-gradient-47" x1="495.0038" y1="391.70955" x2="513.06405" y2="391.70955" gradientUnits="userSpaceOnUse"><stop offset="0" stop-color="aqua"/><stop offset="1" stop-color="#5793fb"/></linearGradient><linearGradient id="linear-gradient-48" x1="457.78497" y1="390.34111" x2="475.61538" y2="390.34111" xlink:href="#linear-gradient-47"/><linearGradient id="linear-gradient-49" x1="478.33107" y1="299.26414" x2="478.33107" y2="368.82322" gradientUnits="userSpaceOnUse"><stop offset="0" stop-color="#00004f"/><stop offset="1" stop-color="#000079"/></linearGradient><linearGradient id="linear-gradient-50" x1="487.2651" y1="317.22783" x2="487.2651" y2="343.19409" gradientUnits="userSpaceOnUse"><stop offset="0" stop-color="#00006c"/><stop offset="1" stop-color="#3049b9"/></linearGradient><linearGradient id="linear-gradient-51" x1="493.04957" y1="295.68319" x2="493.04957" y2="368.19997" xlink:href="#linear-gradient-49"/><linearGradient id="linear-gradient-52" x1="500.90712" y1="211.12829" x2="500.90712" y2="235.94082" gradientUnits="userSpaceOnUse"><stop offset="0" stop-color="#00b5ff"/><stop offset="1" stop-color="#3049b9"/></linearGradient><linearGradient id="linear-gradient-53" x1="488.10851" y1="299.23153" x2="488.10851" y2="248.72176" gradientUnits="userSpaceOnUse"><stop offset="0" stop-color="#7995fd"/><stop offset="1" stop-color="#54deff"/></linearGradient><linearGradient id="linear-gradient-54" x1="506.84041" y1="267.71847" x2="498.67225" y2="251.15734" xlink:href="#linear-gradient-53"/><linearGradient id="linear-gradient-55" x1="245.60861" y1="301.35932" x2="252.10598" y2="387.68078" gradientTransform="matrix(1, 0, 0, 1, 0, 0)" xlink:href="#linear-gradient-17"/><linearGradient id="linear-gradient-56" x1="228.64137" y1="296.57518" x2="235.05961" y2="381.84548" gradientTransform="matrix(1, 0, 0, 1, 0, 0)" xlink:href="#linear-gradient-17"/><linearGradient id="linear-gradient-57" x1="274.99525" y1="390.77704" x2="255.07223" y2="394.40482" xlink:href="#linear-gradient-50"/><linearGradient id="linear-gradient-58" x1="249.26592" y1="392.68183" x2="263.2235" y2="390.24954" xlink:href="#linear-gradient-47"/><linearGradient id="linear-gradient-59" x1="211.28138" y1="387.6035" x2="226.49363" y2="395.47191" xlink:href="#linear-gradient-47"/><linearGradient id="linear-gradient-60" x1="248.59945" y1="219.29563" x2="244.6875" y2="245.09007" gradientUnits="userSpaceOnUse"><stop offset="0" stop-color="#000051"/><stop offset="1" stop-color="#30389c"/></linearGradient><linearGradient id="linear-gradient-61" x1="242.85332" y1="218.42418" x2="238.94136" y2="244.21863" xlink:href="#linear-gradient-60"/><linearGradient id="linear-gradient-62" x1="262.1874" y1="277.07279" x2="262.1874" y2="252.47989" xlink:href="#linear-gradient-53"/><linearGradient id="linear-gradient-63" x1="239.81198" y1="302.46258" x2="239.81198" y2="252.38343" xlink:href="#linear-gradient-53"/><linearGradient id="linear-gradient-64" x1="245.76479" y1="292.23182" x2="230.70421" y2="261.87157" gradientTransform="translate(519.18126 514.4432) rotate(170.75968)" gradientUnits="userSpaceOnUse"><stop offset="0" stop-color="#160ec0"/><stop offset="1" stop-color="#5451ff"/></linearGradient><linearGradient id="linear-gradient-65" x1="227.80607" y1="275.87124" x2="227.80607" y2="255.24486" xlink:href="#linear-gradient-53"/><linearGradient id="linear-gradient-66" x1="76.49007" y1="106.34282" x2="126.50226" y2="106.34282" xlink:href="#linear-gradient-21"/><linearGradient id="linear-gradient-67" x1="80.92757" y1="106.34286" x2="103.34301" y2="106.34286" xlink:href="#linear-gradient-41"/><linearGradient id="linear-gradient-68" x1="254.22181" y1="104.37822" x2="294.98778" y2="104.37822" xlink:href="#linear-gradient-21"/><linearGradient id="linear-gradient-69" x1="393.29553" y1="179.66227" x2="418.02479" y2="179.66227" xlink:href="#linear-gradient-41"/><linearGradient id="linear-gradient-70" x1="402.3509" y1="175.61566" x2="428.15939" y2="175.61566" xlink:href="#linear-gradient-41"/><linearGradient id="linear-gradient-71" x1="400.5607" y1="158.10242" x2="410.14755" y2="167.68926" xlink:href="#linear-gradient-9"/><linearGradient id="linear-gradient-72" x1="479.52783" y1="152.34254" x2="495.00237" y2="152.34254" xlink:href="#linear-gradient-21"/><linearGradient id="linear-gradient-73" x1="470.47448" y1="169.28769" x2="504.05572" y2="169.28769" xlink:href="#linear-gradient-21"/><linearGradient id="linear-gradient-74" x1="505.41205" y1="135.56867" x2="506.73678" y2="136.8934" xlink:href="#linear-gradient-9"/><linearGradient id="linear-gradient-75" x1="509.68349" y1="135.56867" x2="511.00821" y2="136.8934" xlink:href="#linear-gradient-9"/><linearGradient id="linear-gradient-76" x1="513.95492" y1="135.56867" x2="515.27965" y2="136.8934" xlink:href="#linear-gradient-9"/><linearGradient id="linear-gradient-77" x1="461.78718" y1="129.16218" x2="512.74304" y2="180.11803" xlink:href="#linear-gradient-9"/><linearGradient id="linear-gradient-78" x1="215.0702" y1="32.00266" x2="256.76071" y2="73.69317" xlink:href="#linear-gradient-21"/><linearGradient id="linear-gradient-79" x1="221.65852" y1="37.24207" x2="250.63189" y2="66.21544" xlink:href="#linear-gradient-9"/><linearGradient id="linear-gradient-80" x1="363.5701" y1="125.83085" x2="381.16377" y2="143.42452" xlink:href="#linear-gradient-10"/><linearGradient id="linear-gradient-81" x1="371.55354" y1="128.71545" x2="383.57915" y2="140.74106" xlink:href="#linear-gradient-12"/><linearGradient id="linear-gradient-82" x1="229.96258" y1="65.87204" x2="232.84208" y2="68.75155" xlink:href="#linear-gradient-10"/><linearGradient id="linear-gradient-83" x1="366.62442" y1="134.0994" x2="368.25758" y2="135.73257" xlink:href="#linear-gradient-12"/><linearGradient id="linear-gradient-84" x1="368.15617" y1="115.72031" x2="376.78944" y2="124.35359" xlink:href="#linear-gradient-10"/><linearGradient id="linear-gradient-85" x1="139.4409" y1="8.82772" x2="179.03089" y2="48.41772" xlink:href="#linear-gradient-21"/><linearGradient id="linear-gradient-86" x1="285.37066" y1="87.21855" x2="288.2229" y2="90.0708" gradientUnits="userSpaceOnUse"><stop offset="0" stop-color="#2e48cd"/><stop offset="1" stop-color="#1f237e"/></linearGradient><linearGradient id="linear-gradient-87" x1="589.62358" y1="87.21858" x2="592.47582" y2="90.07082" gradientTransform="matrix(-1, 0, 0, 1, 894.1417, 0)" xlink:href="#linear-gradient-86"/><linearGradient id="linear-gradient-88" x1="288.85573" y1="97.24836" x2="292.4153" y2="97.24836" xlink:href="#linear-gradient-86"/><linearGradient id="linear-gradient-89" x1="297.47354" y1="97.24836" x2="301.03302" y2="97.24836" xlink:href="#linear-gradient-86"/><linearGradient id="linear-gradient-90" x1="282.38928" y1="94.2853" x2="288.04137" y2="94.2853" xlink:href="#linear-gradient-53"/><linearGradient id="linear-gradient-91" x1="306.93851" y1="95.31583" x2="302.41194" y2="90.78926" xlink:href="#linear-gradient-53"/><linearGradient id="linear-gradient-92" x1="305.2193" y1="97.03502" x2="300.69273" y2="92.50845" xlink:href="#linear-gradient-53"/><linearGradient id="linear-gradient-93" x1="306.93848" y1="95.31581" x2="302.41197" y2="90.7893" xlink:href="#linear-gradient-53"/><linearGradient id="linear-gradient-94" x1="305.21925" y1="97.03496" x2="300.69279" y2="92.5085" xlink:href="#linear-gradient-53"/><linearGradient id="linear-gradient-95" y1="327.6147" x2="480.03791" y2="327.6147" gradientUnits="userSpaceOnUse"><stop offset="0" stop-color="#2effff"/><stop offset="1" stop-color="#79d3fd"/></linearGradient></defs><g class="cls-1"><g id="Layer_4" data-name="Layer 4"><polygon class="cls-2" points="207.947 159.11 206.797 159.806 179.343 113.613 179.343 113.613 207.947 159.11"/><polygon class="cls-3" points="267.684 160.415 266.358 160.199 272.93 122.379 272.93 122.379 267.684 160.415"/><polygon class="cls-4" points="194.769 199.807 193.759 200.694 124.739 121.428 124.739 121.428 194.769 199.807"/><polygon class="cls-5" points="225.987 148.979 224.769 149.545 177.193 46.333 177.193 46.333 225.987 148.979"/><polygon class="cls-6" points="237.824 148.226 236.48 148.226 236.873 66.821 236.873 66.821 237.824 148.226"/><polygon class="cls-7" points="254.611 151.277 253.356 150.798 295.854 40.586 295.854 40.586 254.611 151.277"/><polygon class="cls-8" points="272.721 181.233 271.801 180.253 358.191 99.696 358.191 99.696 272.721 181.233"/></g><g id="OBJECTS"><path class="cls-9" d="M616.37169,147.65319" transform="translate(-136.0162 -67.58166)"/><path class="cls-9" d="M558.72353,173.264" transform="translate(-136.0162 -67.58166)"/><circle class="cls-10" cx="375.19221" cy="261.12405" r="46.76125" transform="matrix(0.16077, -0.98699, 0.98699, 0.16077, -78.87089, 521.87322)"/><path class="cls-11" d="M347.30657,245.53383h6.34226l4.91671,19.25611h.09183V245.53383H363.163V277.7057h-5.19417l-6.06592-23.48543h-.09222V277.7057h-4.50415Z" transform="translate(-136.0162 -67.58166)"/><path class="cls-11" d="M370.23158,245.53383h13.37264v4.59525h-8.31859v8.96271h6.52679v4.59637h-6.52679V277.7057h-5.05405Z" transform="translate(-136.0162 -67.58166)"/><path class="cls-11" d="M393.75209,250.12908h-5.28368v-4.59525h15.62682v4.59525h-5.286V277.7057h-5.05716Z" transform="translate(-136.0162 -67.58166)"/><rect class="cls-11" x="207.9324" y="214.08683" width="62.4873" height="3.21784"/><rect class="cls-11" x="207.9324" y="169.78031" width="62.4873" height="3.21784"/><path class="cls-12" d="M284.85094,0h42.37189a4.3303,4.3303,0,0,1,4.3303,4.3303V35.28446a4.3303,4.3303,0,0,1-4.3303,4.3303H284.85094a4.3302,4.3302,0,0,1-4.3302-4.3302V4.3302A4.3302,4.3302,0,0,1,284.85094,0Z"/><path class="cls-13" d="M435.74123,79.202l12.80334,7.392a.918.918,0,0,1,0,1.59l-12.80334,7.392a.918.918,0,0,1-1.377-.795v-14.784A.91806.91806,0,0,1,435.74123,79.202Z" transform="translate(-136.0162 -67.58166)"/><path class="cls-14" d="M466.44526,112.8936H417.661a1.124,1.124,0,0,1-1.12406-1.12406h0a1.12409,1.12409,0,0,1,1.12406-1.12406h48.78427a1.12413,1.12413,0,0,1,1.12406,1.12406h0A1.124,1.124,0,0,1,466.44526,112.8936Z" transform="translate(-136.0162 -67.58166)"/><path class="cls-15" d="M467.57312,111.76954a1.12446,1.12446,0,0,1-1.12406,1.12406H433.64433v-2.24812h32.80473A1.12446,1.12446,0,0,1,467.57312,111.76954Z" transform="translate(-136.0162 -67.58166)"/><path class="cls-16" d="M436.64765,111.76954a3.00686,3.00686,0,1,1-3.00677-3.00677A3.00686,3.00686,0,0,1,436.64765,111.76954Z" transform="translate(-136.0162 -67.58166)"/><path class="cls-17" d="M435.34631,111.76954a1.70544,1.70544,0,1,1-1.70543-1.70527A1.70547,1.70547,0,0,1,435.34631,111.76954Z" transform="translate(-136.0162 -67.58166)"/><path class="cls-18" d="M305.892,184.32051a16.61146,16.61146,0,1,1,16.611-16.61175A16.63047,16.63047,0,0,1,305.892,184.32051Zm0-31.02941a14.418,14.418,0,1,0,14.41766,14.41766A14.43455,14.43455,0,0,0,305.892,153.2911Z" transform="translate(-136.0162 -67.58166)"/><path class="cls-19" d="M313.20927,171.63248a4.12066,4.12066,0,0,0-.81159-2.65408,5.30861,5.30861,0,0,0-2.06166-1.54258,19.22833,19.22833,0,0,0-2.88471-.90094V161.175a10.28512,10.28512,0,0,1,2.45329.62386,1.44648,1.44648,0,0,0,1.88633-.78958,1.48742,1.48742,0,0,0-.00741-1.14792,1.33852,1.33852,0,0,0-.73109-.72383,13.19238,13.19238,0,0,0-3.60112-.80282v-1.63244a1.55945,1.55945,0,0,0-3.11889,0v1.69962a7.32057,7.32057,0,0,0-4.23223,1.8178,4.83027,4.83027,0,0,0-1.52075,3.59709,4.155,4.155,0,0,0,.80425,2.67591,5.38061,5.38061,0,0,0,2.08375,1.55725,19.242,19.242,0,0,0,2.865.92774v5.29063a11.54052,11.54052,0,0,1-2.7334-.64712c-.31442-.11692-.6215-.24134-.90667-.38017a1.30564,1.30564,0,0,0-.54833-.12433,1.33506,1.33506,0,0,0-.47517.08775,1.49829,1.49829,0,0,0-.84083.78233,1.46778,1.46778,0,0,0,.71659,1.92283,12.49106,12.49106,0,0,0,1.32333.51175,14.41534,14.41534,0,0,0,3.46448.665v1.63134a1.55945,1.55945,0,0,0,3.11889,0v-1.72356a7.43538,7.43538,0,0,0,4.24446-1.82294A4.7352,4.7352,0,0,0,313.20927,171.63248Zm-10.36733-6.646a1.74739,1.74739,0,0,1-.64342-1.38908,2.1089,2.1089,0,0,1,.58483-1.47691,3.14837,3.14837,0,0,1,1.54907-.83443v4.45469A4.36249,4.36249,0,0,1,302.84194,164.98648Zm6.14874,8.39333a3.1883,3.1883,0,0,1-1.53937.7702v-4.38026a4.65183,4.65183,0,0,1,1.50271.80257,1.75219,1.75219,0,0,1,.62883,1.38183A1.95492,1.95492,0,0,1,308.99068,173.37981Z" transform="translate(-136.0162 -67.58166)"/><rect class="cls-20" x="526.5423" y="277.78044" width="29.37547" height="117.4133" transform="translate(946.44388 605.39252) rotate(180)"/><rect class="cls-21" x="524.89368" y="277.78044" width="27.12735" height="117.4133" transform="translate(940.89851 605.39252) rotate(180)"/><path class="cls-22" d="M496.05659,306.69036l4.16261-.49464,11.11932-70.10317a1.37481,1.37481,0,0,1,1.35789-1.15947H589.5941l.75511-2.403,3.052,1.93472c.03186.0209.06592.03835.09576.0617l.00969.00641-.002.00092a1.37065,1.37065,0,0,1,.50466,1.2908l-11.44266,72.143a1.375,1.375,0,0,1-1.358,1.15947h-80.986a1.35826,1.35826,0,0,1-.91636-.35935l-.00117.00759Z" transform="translate(-136.0162 -67.58166)"/><path class="cls-23" d="M496.964,307.03369H577.95a1.375,1.375,0,0,0,1.358-1.15947l11.44276-72.143a1.37491,1.37491,0,0,0-1.358-1.59021H508.40685a1.37475,1.37475,0,0,0-1.35789,1.15947l-11.44284,72.143A1.37485,1.37485,0,0,0,496.964,307.03369Z" transform="translate(-136.0162 -67.58166)"/><path class="cls-24" d="M500.75177,303.60781H575.09a.873.873,0,0,0,.86224-.73631l10.51527-66.29476a.87312.87312,0,0,0-.86233-1.00993H511.267a.87319.87319,0,0,0-.86241.73639L499.88936,302.598A.87315.87315,0,0,0,500.75177,303.60781Z" transform="translate(-136.0162 -67.58166)"/><path class="cls-25" d="M526.495,272.36143h24.71055a1.10511,1.10511,0,0,0,1.09144-.932l3.47089-21.88233a1.1052,1.1052,0,0,0-1.09152-1.27831H529.96582a1.10525,1.10525,0,0,0-1.09152.93212l-3.47081,21.88232A1.10514,1.10514,0,0,0,526.495,272.36143Z" transform="translate(-136.0162 -67.58166)"/><path class="cls-26" d="M531.193,269.39116h-1.70645a.37591.37591,0,0,1-.38017-.45182l2.04219-12.85409a.5501.5501,0,0,1,.52372-.452h1.70645a.37587.37587,0,0,1,.38008.452l-2.04219,12.85409A.55024.55024,0,0,1,531.193,269.39116Z" transform="translate(-136.0162 -67.58166)"/><path class="cls-26" d="M535.59776,269.39116h-1.70645a.3759.3759,0,0,1-.38016-.45182l1.61878-10.18964a.55049.55049,0,0,1,.5238-.452h1.70645a.37593.37593,0,0,1,.38.452l-1.619,10.18964A.54994.54994,0,0,1,535.59776,269.39116Z" transform="translate(-136.0162 -67.58166)"/><path class="cls-26" d="M540.00246,269.39116H538.296a.376.376,0,0,1-.38026-.45182l1.92133-12.09291a.55034.55034,0,0,1,.52379-.452h1.70637a.376.376,0,0,1,.38008.452L540.526,268.93934A.55009.55009,0,0,1,540.00246,269.39116Z" transform="translate(-136.0162 -67.58166)"/><path class="cls-26" d="M544.40725,269.39116H542.7008a.3759.3759,0,0,1-.38016-.45182l2.87156-18.07459a.55017.55017,0,0,1,.52372-.452h1.70636a.3759.3759,0,0,1,.38008.452l-2.87156,18.07459A.55009.55009,0,0,1,544.40725,269.39116Z" transform="translate(-136.0162 -67.58166)"/><path class="cls-26" d="M548.81188,269.39116H547.1055a.376.376,0,0,1-.38025-.45182l2.27552-14.32241a.55033.55033,0,0,1,.52372-.452h1.70645a.3759.3759,0,0,1,.38008.452l-2.27543,14.32241A.55027.55027,0,0,1,548.81188,269.39116Z" transform="translate(-136.0162 -67.58166)"/><path class="cls-27" d="M557.84912,287.80039h13.56444a.60661.60661,0,0,0,.59916-.51158l1.90531-12.012a.60666.60666,0,0,0-.59918-.70166H559.75442a.60671.60671,0,0,0-.59925.51158L557.25,287.09864A.60667.60667,0,0,0,557.84912,287.80039Z" transform="translate(-136.0162 -67.58166)"/><path class="cls-28" d="M530.13331,296.96029h30.111a.8253.8253,0,0,0,.81521-.6961l2.59221-16.34293a.82538.82538,0,0,0-.81521-.95472H532.72561a.8256.8256,0,0,0-.81529.6961l-2.59213,16.34294A.8254.8254,0,0,0,530.13331,296.96029Z" transform="translate(-136.0162 -67.58166)"/><path class="cls-29" d="M533.674,285.97913l-1.09515,6.90462h26.48588l1.35452-8.53984a4.24879,4.24879,0,0,0-3.88107.34426c-1.74657.95876-4.27776,3.72656-6.02635,3.5288s-2.82916-4.66289-5.20836-4.63162c-2.37912.03127-4.3151,4.92463-6.21981,4.97588S534.91684,285.925,533.674,285.97913Z" transform="translate(-136.0162 -67.58166)"/><path class="cls-30" d="M561.66242,254.21881h14.634a.40106.40106,0,0,0,.39619-.33827l1.25986-7.94269a.40116.40116,0,0,0-.39619-.464h-14.634a.40119.40119,0,0,0-.39618.33827l-1.25977,7.94269A.40111.40111,0,0,0,561.66242,254.21881Z" transform="translate(-136.0162 -67.58166)"/><path class="cls-31" d="M564.24839,257.62977h7.76677a.50257.50257,0,0,0,.47846-.41312h0a.34383.34383,0,0,0-.34763-.41313h-7.76677a.50267.50267,0,0,0-.47846.41313h0A.34376.34376,0,0,0,564.24839,257.62977Z" transform="translate(-136.0162 -67.58166)"/><path class="cls-32" d="M564.003,259.179h7.76669a.50283.50283,0,0,0,.47862-.41312h0a.34388.34388,0,0,0-.34771-.41313h-7.76669a.50266.50266,0,0,0-.47854.41313h0A.34379.34379,0,0,0,564.003,259.179Z" transform="translate(-136.0162 -67.58166)"/><path class="cls-33" d="M563.75772,260.72825h7.7666a.50275.50275,0,0,0,.47862-.41312h0a.34385.34385,0,0,0-.34771-.41313h-7.76669a.50273.50273,0,0,0-.47861.41313h0A.34392.34392,0,0,0,563.75772,260.72825Z" transform="translate(-136.0162 -67.58166)"/><path class="cls-34" d="M567.8088,262.27741H571.279a.50251.50251,0,0,0,.47846-.413h0a.34379.34379,0,0,0-.34763-.41313h-3.47022a.50271.50271,0,0,0-.47853.41313h0A.34373.34373,0,0,0,567.8088,262.27741Z" transform="translate(-136.0162 -67.58166)"/><path class="cls-35" d="M512.11385,284.21857h7.76669a.50272.50272,0,0,0,.47862-.41321h0a.34384.34384,0,0,0-.34771-.41313h-7.76677a.50272.50272,0,0,0-.47845.41313h0A.34378.34378,0,0,0,512.11385,284.21857Z" transform="translate(-136.0162 -67.58166)"/><path class="cls-36" d="M511.86856,285.76772h7.76661a.50267.50267,0,0,0,.47861-.41312h0a.34384.34384,0,0,0-.34771-.41313h-7.76669a.50281.50281,0,0,0-.47862.41313h0A.34386.34386,0,0,0,511.86856,285.76772Z" transform="translate(-136.0162 -67.58166)"/><path class="cls-37" d="M511.62309,287.317h7.76678a.5028.5028,0,0,0,.47853-.41312h0a.34389.34389,0,0,0-.34771-.41313H511.754a.50258.50258,0,0,0-.47853.41313h0A.34381.34381,0,0,0,511.62309,287.317Z" transform="translate(-136.0162 -67.58166)"/><path class="cls-38" d="M515.67427,288.86612h3.47013a.50274.50274,0,0,0,.47862-.413h0a.3438.3438,0,0,0-.34771-.41312h-3.47022a.50275.50275,0,0,0-.47862.41312h0A.34391.34391,0,0,0,515.67427,288.86612Z" transform="translate(-136.0162 -67.58166)"/><path class="cls-39" d="M515.68978,249.12332h7.76677a.50256.50256,0,0,0,.47846-.41313h0a.34383.34383,0,0,0-.34764-.41312H515.8206a.5028.5028,0,0,0-.47853.41312h0A.34377.34377,0,0,0,515.68978,249.12332Z" transform="translate(-136.0162 -67.58166)"/><path class="cls-40" d="M515.4444,250.67256h7.76669a.50286.50286,0,0,0,.47863-.41313h0a.34394.34394,0,0,0-.34773-.41312h-7.76677a.50263.50263,0,0,0-.47844.41312h0A.34382.34382,0,0,0,515.4444,250.67256Z" transform="translate(-136.0162 -67.58166)"/><path class="cls-41" d="M519.49549,252.2218h3.47021a.50277.50277,0,0,0,.47863-.41313h0a.34385.34385,0,0,0-.34772-.41312h-3.4703a.50274.50274,0,0,0-.47854.41312h0A.34393.34393,0,0,0,519.49549,252.2218Z" transform="translate(-136.0162 -67.58166)"/><polygon class="cls-42" points="269.13 230.407 208.516 230.407 162.94 91.367 314.706 91.367 269.13 230.407"/><polygon class="cls-43" points="283.246 234.488 194.4 234.488 95.67 5.01 371.486 7.927 283.246 234.488"/><rect class="cls-44" x="197.01978" y="230.40694" width="83.60616" height="97.20515"/><rect class="cls-45" x="213.88054" y="230.40694" width="49.88473" height="97.20515"/><path class="cls-46" d="M193.7905,230.40694h90.06473a.7123.7123,0,0,1,.7123.7123v10.6979a.7123.7123,0,0,1-.7123.7123H193.7905a.71231.71231,0,0,1-.71231-.71231V231.11924A.71231.71231,0,0,1,193.7905,230.40694Z"/><rect class="cls-47" x="197.01978" y="242.52944" width="83.60616" height="4.48006"/><line class="cls-48" x1="228.23725" y1="242.52944" x2="228.23725" y2="327.65364"/><line class="cls-49" x1="238.8229" y1="242.52944" x2="238.8229" y2="327.65364"/><line class="cls-50" x1="249.40847" y1="242.52944" x2="249.40847" y2="327.65364"/><path class="cls-51" d="M517.61421,249.43563a.44244.44244,0,0,0-.35-.0703.19926.19926,0,0,0-.048-.13732c-.13664-.13175-.5802-.0263-1.06489.099a.18831.18831,0,0,0-.02723-.22549c-.21073-.18266-.63228,0-.63228,0l-2.7673,1.21931-.10115.12628a2.24357,2.24357,0,0,0-.31576.2254,10.00683,10.00683,0,0,0-1.08866,1.17919,6.7515,6.7515,0,0,1-2.73526,2.01421l-11.08863,4.48672,8.88013.59528s3.73743-2.38856,4.83342-2.61337c1.0959-.22481,2.52916-.15459,3.10522-.75881.57608-.60414,2.11174-2.079,2.05889-2.70846-.039-.4642-.44777-.35791-.58357-.29831a14.4877,14.4877,0,0,0-1.54815,1.17818c-.23189.1465-1.11015.31559-1.40392-.07781l1.50963-1.56913a14.35064,14.35064,0,0,1,2.13095-1.42769C517.41747,250.13906,517.82486,249.61829,517.61421,249.43563Z" transform="translate(-136.0162 -67.58166)"/><path class="cls-51" d="M496.06806,381.957l.28828,6.39826s3.63257,1.56458,6.51821,0l.77357-7.73407" transform="translate(-136.0162 -67.58166)"/><path class="cls-52" d="M496.35634,388.35522a5.09422,5.09422,0,0,0-1.26592,2.597,19.24361,19.24361,0,0,0,.07206,3.91985c0,.16926,4.20291.08294,8.48564.11067,4.46809.029,9.0311.16514,9.3842.00329.69172-.31711-10.15777-6.63082-10.15777-6.63082A15.97784,15.97784,0,0,1,496.35634,388.35522Z" transform="translate(-136.0162 -67.58166)"/><path class="cls-51" d="M462.988,379.33221l-1.84773,6.13239s2.58926,2.63824,5.83028,2.11806l3.12765-7.51583" transform="translate(-136.0162 -67.58166)"/><path class="cls-53" d="M459.08572,387.4955a5.09272,5.09272,0,0,1,2.05458-2.0309c.83611.74424,5.98943,2.186,5.98943,2.186s-.011.22119.954,1.19892c.73825.74794,1.60867,1.66236,2.5472,2.47546.49177.1433,5.61373,3.36165,4.91991,3.674-.69366.31265-5.3032.218-6.94575.151-.38758-.016-5.7341-2.17411-7.51937-2.8316-1.78535-.65741-3.40978-1.46807-3.29505-1.79445A22.28845,22.28845,0,0,1,459.08572,387.4955Z" transform="translate(-136.0162 -67.58166)"/><path class="cls-54" d="M494.594,294.97812s-2.69775,24.28866-4.10959,36.58135c-.46766,4.01071-.79135,6.73543-.8453,6.94221-.83629,3.19238-2.10424,7.10413-3.57,11.29456C480.54775,365.54212,472.26,384.77533,472.26,384.77533s-6.451-1.05039-10.19192-3.69419l9.43319-43.78445s-.5126-35.19657-.7734-41.03267Z" transform="translate(-136.0162 -67.58166)"/><path class="cls-55" d="M490.48442,331.55947c-.46766,4.01071-.79135,6.73543-.8453,6.94221-.83629,3.19238-2.10424,7.10413-3.57,11.29456-.27876-4.43328-2.02331-33.71283-2.02331-33.71283Z" transform="translate(-136.0162 -67.58166)"/><path class="cls-51" d="M508.11334,225.06545c-.67789,3.67253-2.60393,11.35795-4.59816,14.21283a1.19,1.19,0,0,1-1.2403.48081c-2.17807-.49329-9.40055-2.75448-10.70079-11.22924-1.53483-10.00461,5.76976-11.95374,9.18147-11.11661C504.16737,218.25036,509.25232,218.8947,508.11334,225.06545Z" transform="translate(-136.0162 -67.58166)"/><path class="cls-56" d="M504.75776,292.80569l1.44759,42.096-1.92393,51.11121s-6.50616,1.1201-11.23185.36145c0,0-4.29975-39.45764-4.53308-45.06184-.2995-7.1918-8.81893-44.12323-8.61923-48.82541" transform="translate(-136.0162 -67.58166)"/><path class="cls-51" d="M500.66748,237.204a59.83883,59.83883,0,0,0-1.47388,7.58554s-6.21172-.21234-9.80314-2.16282a47.66259,47.66259,0,0,0,3.09417-13.238" transform="translate(-136.0162 -67.58166)"/><path class="cls-57" d="M512.21636,220.794a2.39131,2.39131,0,0,0-1.37518-1.37,12.89364,12.89364,0,0,1-1.44235-.38245c-1.17683-.57842-1.22446-2.3121-2.215-3.17148a3.18508,3.18508,0,0,0-1.17245-.58727,8.036,8.036,0,0,0-3.307-.29613,4.916,4.916,0,0,1-1.51224.07249,5.07269,5.07269,0,0,1-.79868-.26611,5.07966,5.07966,0,0,0-3.30888-.18764,3.49212,3.49212,0,0,0-1.1856.67039c-3.50722,1.22918-2.43382,3.57837-2.43382,3.57837-2.43348.54606-3.98989,1.83087-4.06854,6.29879-.07881,4.46809.62723,10.10762,1.2167,10.90639.58062.7868,5.65007,2.19443,8.0806,1.0224.79945-.38548,3.19247-7.49644,3.46482-8.268a1.15734,1.15734,0,0,1,.26435-.50754,1.19664,1.19664,0,0,1,.86664-.142,3.75192,3.75192,0,0,0,2.06452-.57118,5.36667,5.36667,0,0,0,2.3502-.30278,3.61871,3.61871,0,0,0,1.457-.942,2.4163,2.4163,0,0,0,.47045-.79944,4.03951,4.03951,0,0,0,2.6878-2.789A3.24443,3.24443,0,0,0,512.21636,220.794Z" transform="translate(-136.0162 -67.58166)"/><path class="cls-58" d="M470.14577,298.45542c1.16115.65024,25.90855,2.08568,34.87423-.42291,0,0-.06929-5.6767,0-8.46793.03-1.20515,1.55194-29.93485,1.10232-37.52233,0,0-2.28716-6.41874-7.03881-7.78472a91.36345,91.36345,0,0,0-11.43019-2.39058c-2.47294.44962-7.34547,5.30909-9.03,9.77929C473.481,265.29252,469.19013,297.92647,470.14577,298.45542Z" transform="translate(-136.0162 -67.58166)"/><path class="cls-51" d="M538.46553,256.447c-.11144.01348-.45215.09061-.91071.20551.25027-.32943.17853-.684-.04476-.61291-.30919.09829-1.96709.57607-2.38864.7868-.42147.21074-1.82455,1.12491-1.82455,1.12491h.00076a2.51828,2.51828,0,0,0-.4197.21453c-.74929.52456-1.46124,2.13576-2.39791,2.92256a17.053,17.053,0,0,1-2.3207,1.54511l-15.43948,4.18764-3.48454-7.194-10.88473,2.398s6.23852,11.634,9.31694,13.90085c1.11656.8222,18.27024-8.27026,22.27277-10.41125h.00009c.68834-.36743,3.35448-.9183,4.071-1.92991a5.91751,5.91751,0,0,0,.89925-1.71429l1.26466-1.53154s1.42373-.96356,1.5366-1.3868a.33086.33086,0,0,0-.17373-.42569l.47778-.35125c.562-.51993.21065-.843.21065-.843C538.77455,257.05118,538.92915,256.39082,538.46553,256.447Z" transform="translate(-136.0162 -67.58166)"/><path class="cls-59" d="M494.48577,251.81053c-.28356,3.20469,4.42687,14.65461,4.42687,14.65461a25.99137,25.99137,0,0,0,11.353-5.56408s-4.07326-10.47278-6.02778-12.45858C501.85855,246.02509,494.92966,246.7941,494.48577,251.81053Z" transform="translate(-136.0162 -67.58166)"/><path class="cls-51" d="M260.60411,387.83647l-5.1969.64544-2.17732-12.03509,6.8988-.35757S260.4619,387.36594,260.60411,387.83647Z" transform="translate(-136.0162 -67.58166)"/><path class="cls-51" d="M222.3147,378.19407s-3.25535,8.97092-3.29455,9.47668l-5.86223-1.83028,2.245-9.2742Z" transform="translate(-136.0162 -67.58166)"/><path class="cls-60" d="M260.15962,338.54888c-1.20186-10.22023-3.5959-38.33694-4.60633-47.85257l-18.00816-4.1696c-8.72284,18.52.34543,23.1115,2.44292,27.20431.478.93929,1.30681,10.00149,4.43261,23.87722,1.95756,20.30147,5.15955,44.85212,5.15955,44.85212s8.79288.33212,11.76619-1.2473Z" transform="translate(-136.0162 -67.58166)"/><path class="cls-61" d="M226.66065,290.11662s-4.38438,7.63679-3.76449,14.4094c.54446,5.81461,1.69052,22.96019,2.50489,32.2993C220.9177,351.01319,214.3232,378.815,214.3232,378.815a36.28761,36.28761,0,0,0,7.28824,2.68671,20.45841,20.45841,0,0,0,5.1164.58786s11.74958-35.90447,13.72324-43.23974c4.67141-17.36188,8.19347-48.98548,8.19347-48.98548Z" transform="translate(-136.0162 -67.58166)"/><path class="cls-62" d="M272.91492,389.54983a1.1506,1.1506,0,0,1,.57134,1.68605c-.86182,1.761-7.67177,3.589-10.96893,3.949h-8.0087l12.04588-4.39863a21.6052,21.6052,0,0,1,3.80309-1.34888A9.7633,9.7633,0,0,1,272.91492,389.54983Z" transform="translate(-136.0162 -67.58166)"/><path class="cls-63" d="M255.32,387.99975a18.08534,18.08534,0,0,0,5.25667-.47441s4.4417,1.51864,6.91464,1.51864,4.78664-.01871,5.42365.50585a7.98612,7.98612,0,0,0-5.36743,1.405c-7.49374,4.42139-13.03886,4.23-13.03886,4.23S253.77384,390.28041,255.32,387.99975Z" transform="translate(-136.0162 -67.58166)"/><path class="cls-64" d="M227.52155,395.19374c.38413-2.98367-3.30661-4.37-5.59224-4.78217-1.49866-.78688-2.72986-3.37572-2.72986-3.37572a11.726,11.726,0,0,1-5.89814-1.7878,7.0578,7.0578,0,0,0-1.75079,2.4227A13.28878,13.28878,0,0,0,210.5,391.40759s2.51188,1.6455,4.123,2.58227a15.30535,15.30535,0,0,0,4.94587,1.20388Z" transform="translate(-136.0162 -67.58166)"/><path class="cls-65" d="M251.29,221.9464a7.43559,7.43559,0,0,1-.40174,7.811,20.51921,20.51921,0,0,0-2.19249,5.75408c-.87076,3.6662.275,10.7695.275,10.7695s-4.67436.64122-6.73662-.32091c-2.06242-.9618-.41253-12.69418-.41253-12.69418s1.42069-6.55336,1.64989-7.195c.22911-.64156,4.35353-5.5452,4.35353-5.5452Z" transform="translate(-136.0162 -67.58166)"/><path class="cls-51" d="M244.04648,242.9626c-.04637-.39475.06229-7.06932.06229-7.06932l-.59739-1.00437-2.72422-4.59765s-4.37141-2.697-4.815,0c-.3145,1.95984-.09643,12.44864-.09643,12.44864l-4.79541,1.68149c1.69709,4.39611,7.66739,4.82238,7.66739,4.82238,8.4847.79195,12.09165-4.63086,12.09165-4.63086S244.14147,243.32953,244.04648,242.9626Z" transform="translate(-136.0162 -67.58166)"/><path class="cls-66" d="M238.26542,234.14864a9.38819,9.38819,0,0,0,5.78763,5.73352v-1.61044Z" transform="translate(-136.0162 -67.58166)"/><path class="cls-51" d="M282.399,250.90209c-.07131-.41945-.18755-.79228-.39112-.87177a1.399,1.399,0,0,0-.40613-.077c.35344-.44819.75-.93575.89579-1.11116.27843-.33465,1.43882-1.579,1.50423-2.09361.06541-.5147-.51006-.41608-.66735-.31889a11.42455,11.42455,0,0,0-1.84706,1.74927c-.38556.42813-1.1276,1.24106-1.64736,1.80954a15.23866,15.23866,0,0,0,.85222-1.71614.4703.4703,0,0,0-.26022-.55027,9.47653,9.47653,0,0,0-2.45549,2.93486,10.82549,10.82549,0,0,0-.41539,2.224,4.26253,4.26253,0,0,1-1.2983,1.87116l-7.12757,5.84327,3.51295,3.42638,6.3342-6.8435a6.047,6.047,0,0,1,1.67669-1.11116,2.97676,2.97676,0,0,0,.98809-.956,3.29234,3.29234,0,0,0,.37107-.76371c.08058.237.28491.30945.42256.125a6.656,6.656,0,0,0,.66458-1.82867c.01129-.31653.09348-1.40788-.114-1.63025A.75294.75294,0,0,0,282.399,250.90209Z" transform="translate(-136.0162 -67.58166)"/><path class="cls-51" d="M251.19107,220.7329s.03633,17.2867-4.73808,17.94057c-2.18078.29857-6.73-2.1581-9.0606-5.678,0,0-3.49071-4.95995-2.979-10.35494C234.92535,217.24524,248.99664,213.258,251.19107,220.7329Z" transform="translate(-136.0162 -67.58166)"/><path class="cls-67" d="M251.31212,229.07473s1.01835-3.43456-.20442-5.3144c0,0-.84732-1.021-3.06821-.30936-1.61786.51824-4.805,1.74691-7.86043-.59124,0,0,.34637,3.9528-2.505,5.80086a12.57419,12.57419,0,0,0-1.00327,3.96326c-.06558,1.737-.35167,6.10078-.795,10.11605l-5.82675,1.99524s.21984-1.9429.38708-8.74079c.1605-6.51981-1.92477-14.31718,3.90113-16.624,0,0,1.79437-6.105,10.02535-4.80864C252.59389,215.85793,256.21179,222.49153,251.31212,229.07473Z" transform="translate(-136.0162 -67.58166)"/><path class="cls-51" d="M239.28681,228.02417s-.97393-2.7506-2.774-1.37163c-1.31414,1.00681-1.016,5.76007,1.3493,5.95959" transform="translate(-136.0162 -67.58166)"/><path class="cls-68" d="M271.39965,258.69946s-4.65556,3.52484-8.52685,6.23465c-1.52809-3.2267-2.19376-4.53359-5.72146-12.71088-3.01933-6.999-5.33312-7.4172-5.33312-7.4172l-2.694,17.02361s7.69722,13.244,11.68155,13.94064c2.262.39559,10.005-6.89087,14.44472-11.68021a17.68436,17.68436,0,0,0-3.14788-5.01112A3.482,3.482,0,0,0,271.39965,258.69946Z" transform="translate(-136.0162 -67.58166)"/><path class="cls-69" d="M225.59964,277.04194c.27329,3.65052-2.33106,20.006-2.60443,22.016-.12315.91619.28711,1.1759.28711,1.1759s19.53321,5.75518,32.98679.02639c0,0,.51951-.19118.38287-1.42179-.24614-2.24239-2.20387-28.70112-2.20387-28.70112a40.228,40.228,0,0,0,2.63849-7.09579c.54715-2.72068-2.5429-7.45143-2.912-9.54327-.369-2.09185-2.35164-8.69553-2.35164-8.69553s-1.47557-.41869-5.89376-1.422c0,0-2.89752,7.58824-12.31772,0-.94334.17778-4.90836.92976-6.23439,1.21687a2.84359,2.84359,0,0,1-.32833.0821,7.57406,7.57406,0,0,0-3.6093,2.80286,30.63423,30.63423,0,0,0-.08219,15.02576A96.06838,96.06838,0,0,1,225.59964,277.04194Z" transform="translate(-136.0162 -67.58166)"/><path class="cls-70" d="M229.88361,262.85734h19.36266a1.08722,1.08722,0,0,1,1.08722,1.08722v28.51033a1.08722,1.08722,0,0,1-1.08722,1.08722h-19.3626a1.08727,1.08727,0,0,1-1.08727-1.08727v-28.5103a1.08721,1.08721,0,0,1,1.08721-1.08721Z" transform="translate(228.12659 555.96834) rotate(-159.10325)"/><path class="cls-71" d="M229.57931,262.85729h18.44932a1.54385,1.54385,0,0,1,1.54385,1.54385v27.59715a1.54383,1.54383,0,0,1-1.54383,1.54383H229.57912a1.54366,1.54366,0,0,1-1.54366-1.54366V264.40114a1.54385,1.54385,0,0,1,1.54385-1.54385Z" transform="translate(293.82075 523.55385) rotate(-170.75968)"/><path class="cls-51" d="M250.863,279.01543c.37291,0,.76724-.24833.59385-.47095-.17331-.22287-2.54973-1.26256-3.11146-1.08942-.56157.1734-1.44337.69324-2.03756.844a7.10314,7.10314,0,0,1-1.84427,0l-7.90012-1.70974-2.521,4.56621,11.18448.66474s1.12667.46969,1.89771.80872c.03178.014.06407.0172.09593.02883a5.58091,5.58091,0,0,0,1.5548.40225c.68051.01349.97562-.41169.98793-.69753l-.00034-.00329c.37384-.08775.522-.31189.53156-.53131a.73086.73086,0,0,0-.06432-.32267.57673.57673,0,0,0,.48377-.52035.74878.74878,0,0,0-.07267-.34594c.3666-.08927.51041-.31248.51985-.53005a.79927.79927,0,0,0-.16134-.497,7.02683,7.02683,0,0,0-2.109-.81732l.00911-.00278A11.86468,11.86468,0,0,0,250.863,279.01543Z" transform="translate(-136.0162 -67.58166)"/><path class="cls-72" d="M237.03161,276.60681,226.982,274.25408c1.31743-5.11842,3.03442-12.88064,4.11381-17.69307,1.32619-5.9612-.28711-11.29356-3.71872-11.96344a2.82374,2.82374,0,0,1-.32833.082,6.67192,6.67192,0,0,0-3.69638,2.61345,21.662,21.662,0,0,0-2.24222,6.802s-4.85492,25.01241-1.42381,26.64611c2.97137,1.41471,15.161,3.06266,15.161,3.06266a15.2973,15.2973,0,0,0,2.16333-5.37923A2.87927,2.87927,0,0,0,237.03161,276.60681Z" transform="translate(-136.0162 -67.58166)"/><rect class="cls-73" x="76.49007" y="89.51368" width="50.01218" height="33.65829" rx="5.1576"/><path class="cls-74" d="M82.98287,95.13517h18.30485a2.0553,2.0553,0,0,1,2.0553,2.0553v18.3048a2.0553,2.0553,0,0,1-2.0553,2.0553h-18.305a2.05519,2.05519,0,0,1-2.05519-2.05519V97.19047A2.0553,2.0553,0,0,1,82.98287,95.13517Z"/><path class="cls-26" d="M82.99164,102.39449h1.468a.5119.5119,0,0,1,.5119.5119V115.016a.5118.5118,0,0,1-.5118.5118H82.99154a.5117.5117,0,0,1-.5117-.5117V102.90629A.5118.5118,0,0,1,82.99164,102.39449Z"/><path class="cls-26" d="M87.1964,104.93806h1.468a.5119.5119,0,0,1,.5119.5119v9.5661a.5117.5117,0,0,1-.5117.5117H87.1963a.5117.5117,0,0,1-.5117-.5117v-9.5662A.5118.5118,0,0,1,87.1964,104.93806Z"/><path class="cls-26" d="M91.40117,103.12119h1.468a.51183.51183,0,0,1,.51183.51183v11.38291a.51183.51183,0,0,1-.51183.51183H91.401a.51164.51164,0,0,1-.51164-.51164V103.633A.5118.5118,0,0,1,91.40117,103.12119Z"/><path class="cls-26" d="M95.60591,97.411H97.074a.51185.51185,0,0,1,.51185.51185v17.093a.5119.5119,0,0,1-.5119.5119H95.60586a.51175.51175,0,0,1-.51175-.51175V97.92282A.5118.5118,0,0,1,95.60591,97.411Z"/><path class="cls-26" d="M99.81071,100.99285h1.4681a.51174.51174,0,0,1,.51174.51174V115.016a.5118.5118,0,0,1-.5118.5118h-1.4682a.51164.51164,0,0,1-.51164-.51164V101.50465A.5118.5118,0,0,1,99.81071,100.99285Z"/><line class="cls-75" x1="109.22787" y1="97.52996" x2="121.06933" y2="97.52996"/><line class="cls-75" x1="109.22787" y1="100.1274" x2="119.61922" y2="100.1274"/><line class="cls-75" x1="109.22787" y1="102.72492" x2="119.61922" y2="102.72492"/><line class="cls-75" x1="109.22787" y1="105.32227" x2="121.06933" y2="105.32227"/><line class="cls-75" x1="109.22787" y1="107.91971" x2="117.32887" y2="107.91971"/><line class="cls-75" x1="109.22787" y1="110.51715" x2="121.06933" y2="110.51715"/><line class="cls-75" x1="109.22787" y1="113.11459" x2="121.06933" y2="113.11459"/><line class="cls-75" x1="109.22787" y1="115.71211" x2="117.5262" y2="115.71211"/><path class="cls-76" d="M453.64134,321.12681c-.02782-.12989-.05564-.26889-.09273-.39879a12.61169,12.61169,0,0,0-.4358-1.56711,13.80565,13.80565,0,0,0-1.62275-3.24558l1.58557-1.57638-3.79256-3.79264-.07417.07417-1.50221,1.51157a14.09673,14.09673,0,0,0-5.2114-2.16063V307.7367h-5.35984v2.23472a14.09732,14.09732,0,0,0-5.21139,2.16063l-1.57639-1.58574-3.79255,3.79264,1.58565,1.57638a14.09605,14.09605,0,0,0-2.16053,5.21148h-2.23481v5.35967h2.24408a13.92517,13.92517,0,0,0,2.15126,5.2114l-1.58565,1.57638,3.79255,3.79273,1.57639-1.58565a13.92793,13.92793,0,0,0,5.21139,2.15127v2.24407h5.35984v-2.24407a13.92737,13.92737,0,0,0,5.2114-2.15127l1.50221,1.51139.07417.07426,2.28117-2.28116,1.51139-1.51157-1.51139-1.5022-.07418-.07418c.02773-.037.04636-.07409.07418-.11118a13.87838,13.87838,0,0,0,2.0771-5.10022h2.24415v-5.35967ZM439.81542,332.7551a8.94841,8.94841,0,1,1,8.94832-8.94841A8.94791,8.94791,0,0,1,439.81542,332.7551Z" transform="translate(-136.0162 -67.58166)"/><path class="cls-77" d="M575.15462,207.72186c-.01552-.07232-.03094-.14979-.05168-.222a7.0229,7.0229,0,0,0-.24268-.8727,7.68763,7.68763,0,0,0-.90355-1.80718l.88289-.87775-2.1118-2.1119-.04131.0413-.83646.84168a7.85077,7.85077,0,0,0-2.902-1.20313V200.2658h-2.98453v1.24435a7.85,7.85,0,0,0-2.90182,1.20313l-.87776-.883-2.1119,2.1119.883.87775a7.84849,7.84849,0,0,0-1.203,2.90191h-1.24444v2.98452h1.24958a7.75411,7.75411,0,0,0,1.1979,2.90182l-.883.87776,2.1119,2.1119.87776-.8829a7.75457,7.75457,0,0,0,2.90182,1.19791v1.24957h2.98453v-1.24957a7.75538,7.75538,0,0,0,2.902-1.19791l.83646.84159.04131.04131,1.27021-1.27014.84159-.84176-.84159-.83646-.0413-.0413c.01542-.02057.02579-.04122.0413-.062a7.72733,7.72733,0,0,0,1.15661-2.83986h1.24957v-2.98452Zm-7.69876,6.47505a4.98275,4.98275,0,1,1,4.98271-4.98279A4.9826,4.9826,0,0,1,567.45586,214.19691Z" transform="translate(-136.0162 -67.58166)"/><path class="cls-78" d="M231.81254,195.44106c-.01871-.08725-.03734-.18073-.06238-.26806a8.475,8.475,0,0,0-.29292-1.05351,9.27843,9.27843,0,0,0-1.091-2.18186l1.066-1.05983-2.54964-2.54973-.04982.0499-1.00992,1.01617a9.47543,9.47543,0,0,0-3.50352-1.45247v-1.50238h-3.60315v1.50238a9.47643,9.47643,0,0,0-3.50351,1.45247l-1.05975-1.06607-2.54973,2.54973,1.06607,1.05983a9.47432,9.47432,0,0,0-1.45247,3.50343H211.7143v3.60323h1.5087a9.35982,9.35982,0,0,0,1.44623,3.50343l-1.06607,1.05975,2.54973,2.54972,1.05975-1.06589a9.36537,9.36537,0,0,0,3.50351,1.44623v1.50861h3.60315v-1.50861a9.3644,9.3644,0,0,0,3.50352-1.44623l1.00992,1.016.04982.0499,1.53356-1.53356,1.01608-1.01616-1.01608-1.00985-.0499-.0499c.01871-.02486.03127-.04982.0499-.07468a9.32992,9.32992,0,0,0,1.39642-3.42875h1.50861v-3.60323Zm-9.29477,7.81735a6.01569,6.01569,0,1,1,6.01573-6.01574A6.01541,6.01541,0,0,1,222.51777,203.25841Z" transform="translate(-136.0162 -67.58166)"/><rect class="cls-79" x="254.22181" y="85.35436" width="40.76596" height="38.04773" rx="5.3537"/><path class="cls-26" d="M260.57712,88.01215h28.05543a3.5076,3.5076,0,0,1,3.5076,3.5076v25.717a3.5076,3.5076,0,0,1-3.5076,3.5076H260.577a3.5075,3.5075,0,0,1-3.5075-3.5075V91.51975A3.5076,3.5076,0,0,1,260.57712,88.01215Z"/><path class="cls-80" d="M418.02479,188.32992H396.0382a2.93659,2.93659,0,0,1-2.74267-1.88844l9.62191-14.334a2.53743,2.53743,0,0,1,4.19953,0l3.06645,4.55921Z" transform="translate(-136.0162 -67.58166)"/><path class="cls-81" d="M428.15939,172.29626v13.0751a2.9667,2.9667,0,0,1-2.95856,2.95856H402.3509l7.83252-11.66327,8.57878-12.76035a2.26,2.26,0,0,1,3.75884,0Z" transform="translate(-136.0162 -67.58166)"/><path class="cls-82" d="M408.52274,162.31761a3.74687,3.74687,0,1,1-3.74678-3.74679A3.7468,3.7468,0,0,1,408.52274,162.31761Z" transform="translate(-136.0162 -67.58166)"/><path class="cls-83" d="M495.00237,152.34258c0,4.863-3.46407,8.80511-7.73719,8.80511-4.2732,0-7.73735-3.9421-7.73735-8.80511,0-4.86292,3.46415-8.80519,7.73735-8.80519C491.5383,143.53739,495.00237,147.47966,495.00237,152.34258Z" transform="translate(-136.0162 -67.58166)"/><path class="cls-84" d="M489.69513,163.16181h0a20.46586,20.46586,0,0,0-4.86,0h0a16.97037,16.97037,0,0,0-14.36068,12.39654h33.58124A16.97015,16.97015,0,0,0,489.69513,163.16181Z" transform="translate(-136.0162 -67.58166)"/><path class="cls-85" d="M507.01115,136.231a.93672.93672,0,1,1-.93676-.93676A.93682.93682,0,0,1,507.01115,136.231Z" transform="translate(-136.0162 -67.58166)"/><path class="cls-86" d="M511.28259,136.231a.93672.93672,0,1,1-.93676-.93676A.93682.93682,0,0,1,511.28259,136.231Z" transform="translate(-136.0162 -67.58166)"/><path class="cls-87" d="M515.554,136.231a.93672.93672,0,1,1-.93676-.93676A.93682.93682,0,0,1,515.554,136.231Z" transform="translate(-136.0162 -67.58166)"/><path class="cls-88" d="M516.10269,133.3899H458.42793a2.102,2.102,0,0,0-2.09977,2.09968v38.301a2.102,2.102,0,0,0,2.09977,2.09968h57.67476a2.10193,2.10193,0,0,0,2.09935-2.09968v-38.301A2.10193,2.10193,0,0,0,516.10269,133.3899Zm-57.67476.6639h57.67476a1.4374,1.4374,0,0,1,1.43545,1.43578v2.69505H456.99206v-2.69505A1.43743,1.43743,0,0,1,458.42793,134.0538Zm57.67476,41.1726H458.42793a1.43743,1.43743,0,0,1-1.43587-1.43578V138.84853h60.54608v34.94209A1.4374,1.4374,0,0,1,516.10269,175.2264Z" transform="translate(-136.0162 -67.58166)"/><path class="cls-89" d="M305.21879,307.7002a7.74534,7.74534,0,1,1-7.78186-7.70886A7.74528,7.74528,0,0,1,305.21879,307.7002Z" transform="translate(-136.0162 -67.58166)"/><polyline class="cls-90" points="158.051 240.534 161.115 243.476 165.162 237.959"/><path class="cls-91" d="M611.10258,269.46424a5.82577,5.82577,0,1,1-5.75248-5.89848A5.82564,5.82564,0,0,1,611.10258,269.46424Z" transform="translate(-136.0162 -67.58166)"/><polyline class="cls-92" points="466.694 202.05 468.96 204.303 472.076 200.206"/><path class="cls-93" d="M211.81824,257.74205a2.14225,2.14225,0,1,1-2.14225-2.14242A2.1423,2.1423,0,0,1,211.81824,257.74205Z" transform="translate(-136.0162 -67.58166)"/><path class="cls-91" d="M207.65453,308.29211a1.31019,1.31019,0,1,1-1.31018-1.31035A1.31013,1.31013,0,0,1,207.65453,308.29211Z" transform="translate(-136.0162 -67.58166)"/><path class="cls-94" d="M285.3252,359.03167a1.31023,1.31023,0,1,1-1.31019-1.31035A1.31019,1.31019,0,0,1,285.3252,359.03167Z" transform="translate(-136.0162 -67.58166)"/><path class="cls-95" d="M179.8428,341.49639a2.72713,2.72713,0,1,1-2.72692-2.72733A2.727,2.727,0,0,1,179.8428,341.49639Z" transform="translate(-136.0162 -67.58166)"/><path class="cls-95" d="M627.16549,366.77779a2.72713,2.72713,0,1,1-2.72691-2.72734A2.727,2.727,0,0,1,627.16549,366.77779Z" transform="translate(-136.0162 -67.58166)"/><path class="cls-95" d="M402.681,75.31863a2.72713,2.72713,0,1,1-2.72691-2.72734A2.727,2.727,0,0,1,402.681,75.31863Z" transform="translate(-136.0162 -67.58166)"/><path class="cls-95" d="M242.91272,158.02081a3.62591,3.62591,0,1,1-3.62566-3.62616A3.62576,3.62576,0,0,1,242.91272,158.02081Z" transform="translate(-136.0162 -67.58166)"/><path class="cls-95" d="M566.09907,132.89131a3.626,3.626,0,1,1-3.62574-3.62616A3.62579,3.62579,0,0,1,566.09907,132.89131Z" transform="translate(-136.0162 -67.58166)"/><path class="cls-91" d="M542.728,182.77891a2.1423,2.1423,0,1,1-2.14209-2.14234A2.14212,2.14212,0,0,1,542.728,182.77891Z" transform="translate(-136.0162 -67.58166)"/><path class="cls-89" d="M518.20494,346.59113a2.14229,2.14229,0,1,1-2.14215-2.14225A2.14227,2.14227,0,0,1,518.20494,346.59113Z" transform="translate(-136.0162 -67.58166)"/><path class="cls-91" d="M383.42217,132.2076h-1.7276v-1.72642a.68316.68316,0,0,0-1.36632,0v1.72642h-1.72652a.68321.68321,0,1,0,0,1.36641h1.72652v1.72693a.68316.68316,0,0,0,1.36632,0V133.574h1.7276a.68321.68321,0,1,0,0-1.36641Z" transform="translate(-136.0162 -67.58166)"/><path class="cls-91" d="M521.66909,221.99378a.68372.68372,0,0,1-.68312-.68329v-4.81985a.68329.68329,0,0,1,1.36658,0v4.81985A.68379.68379,0,0,1,521.66909,221.99378Z" transform="translate(-136.0162 -67.58166)"/><path class="cls-91" d="M524.08007,219.58356h-4.82052a.68321.68321,0,1,1,0-1.36641h4.82052a.68321.68321,0,1,1,0,1.36641Z" transform="translate(-136.0162 -67.58166)"/><path class="cls-91" d="M292.86985,266.3006h-1.7276V264.574a.68321.68321,0,0,0-1.36641,0v1.7266h-1.72651a.68316.68316,0,1,0,0,1.36632h1.72651v1.72693a.68321.68321,0,1,0,1.36641,0v-1.72693h1.7276a.68316.68316,0,1,0,0-1.36632Z" transform="translate(-136.0162 -67.58166)"/><path class="cls-89" d="M554.92875,165.243h-1.72743v-1.72659a.68329.68329,0,0,0-1.36658,0V165.243h-1.72626a.68321.68321,0,1,0,0,1.36641h1.72626v1.72693a.68329.68329,0,0,0,1.36658,0v-1.72693h1.72743a.68321.68321,0,1,0,0-1.36641Z" transform="translate(-136.0162 -67.58166)"/><path class="cls-93" d="M458.29546,275.10225h-1.72735v-1.72643a.68325.68325,0,0,0-1.36649,0v1.72643h-1.72643a.68325.68325,0,0,0,0,1.36649h1.72643v1.72693a.68325.68325,0,1,0,1.36649,0v-1.72693h1.72735a.68325.68325,0,1,0,0-1.36649Z" transform="translate(-136.0162 -67.58166)"/><path class="cls-96" d="M217.77326,35.935H255.564a3.862,3.862,0,0,1,3.862,3.862V67.40478a3.8621,3.8621,0,0,1-3.8621,3.8621H217.77316a3.8621,3.8621,0,0,1-3.8621-3.8621V39.79721A3.8622,3.8622,0,0,1,217.77326,35.935Z"/><path class="cls-97" d="M223.53693,39.97489h26.26318a2.684,2.684,0,0,1,2.684,2.684V61.84515a2.6841,2.6841,0,0,1-2.6841,2.6841H223.53693a2.684,2.684,0,0,1-2.684-2.684V42.65889A2.684,2.684,0,0,1,223.53693,39.97489Z"/><path class="cls-98" d="M387.80362,135.64216h-30.2378a.69666.69666,0,0,1-.6967-.69669h0a.69665.69665,0,0,1,.6967-.69669h30.2378a.69665.69665,0,0,1,.69669.69669h0A.69665.69665,0,0,1,387.80362,135.64216Z" transform="translate(-136.0162 -67.58166)"/><path class="cls-99" d="M388.50267,134.94547a.697.697,0,0,1-.69669.69669H367.47273v-1.39338H387.806A.697.697,0,0,1,388.50267,134.94547Z" transform="translate(-136.0162 -67.58166)"/><circle class="cls-100" cx="231.45434" cy="67.36381" r="1.86374"/><path class="cls-101" d="M368.52759,134.94547a1.05709,1.05709,0,1,1-1.057-1.05705A1.05706,1.05706,0,0,1,368.52759,134.94547Z" transform="translate(-136.0162 -67.58166)"/><path class="cls-102" d="M369.85926,115.14386a.33883.33883,0,0,0-.27657.33313v7.32684a2.27011,2.27011,0,0,0-1.88641.12164,1.61025,1.61025,0,1,0,1.37483,2.7694,1.98756,1.98756,0,0,0,1.24992-2.03141h.03279v-6.78533l6.48685-1.2108v5.63775a2.26991,2.26991,0,0,0-1.88633.12155,1.61022,1.61022,0,1,0,1.37466,2.7694,1.98738,1.98738,0,0,0,1.25008-2.03132h.03288V114.1046a.33877.33877,0,0,0-.401-.333Z" transform="translate(-136.0162 -67.58166)"/><rect class="cls-103" x="135.46121" y="10.46396" width="47.54936" height="36.31751" rx="4.0005"/><path class="cls-104" d="M140.562,12.49705h37.3477a2.439,2.439,0,0,1,2.439,2.439V42.30939a2.439,2.439,0,0,1-2.439,2.439H140.562a2.4389,2.4389,0,0,1-2.4389-2.4389V14.936A2.4389,2.4389,0,0,1,140.562,12.49705Z"/><path class="cls-105" d="M283.997,89.394s.15822-1.1201.55162-1.33016a17.087,17.087,0,0,1,3.9389-.97419c.80559.0188,1.25522,1.46132,1.25522,1.46132Z" transform="translate(-136.0162 -67.58166)"/><path class="cls-106" d="M305.89182,89.394s-.15831-1.1201-.55171-1.33016a17.08468,17.08468,0,0,0-3.93889-.97419c-.80559.0188-1.25522,1.46132-1.25522,1.46132Z" transform="translate(-136.0162 -67.58166)"/><path class="cls-26" d="M307.62465,90.5375c-1.81148-2.721-10.92847-2.93714-12.68019-2.95206-1.75188.01492-10.86888.231-12.68036,2.95206-1.28211,1.92317-4.36087,13.08994-4.10739,13.96213.246.87219,3.97328,1.491,5.46419,0a15.97067,15.97067,0,0,0,1.95309-2.6985,4.82832,4.82832,0,0,1,5.21815-2.19173,13.92162,13.92162,0,0,0,8.30448,0,4.8283,4.8283,0,0,1,5.21814,2.19173,15.97678,15.97678,0,0,0,1.95309,2.6985c1.491,1.491,5.21823.87219,5.4642,0C311.98552,103.62744,308.90676,92.46067,307.62465,90.5375Z" transform="translate(-136.0162 -67.58166)"/><path class="cls-107" d="M292.4153,97.2484a1.77979,1.77979,0,1,1-1.77978-1.77978A1.77981,1.77981,0,0,1,292.4153,97.2484Z" transform="translate(-136.0162 -67.58166)"/><path class="cls-108" d="M301.033,97.2484a1.77974,1.77974,0,1,1-1.77978-1.77978A1.77971,1.77971,0,0,1,301.033,97.2484Z" transform="translate(-136.0162 -67.58166)"/><path class="cls-109" d="M286.9302,93.17413h-.60371v-.60379a1.11117,1.11117,0,1,0-2.22233,0v.60379h-.60372a1.11117,1.11117,0,0,0,0,2.22233h.60372v.60372a1.11117,1.11117,0,1,0,2.22233,0v-.60372h.60371a1.11117,1.11117,0,1,0,0-2.22233Z" transform="translate(-136.0162 -67.58166)"/><path class="cls-110" d="M305.29569,92.56612a1.10691,1.10691,0,1,1-1.10695-1.10695A1.1069,1.1069,0,0,1,305.29569,92.56612Z" transform="translate(-136.0162 -67.58166)"/><path class="cls-111" d="M305.29569,96.00448a1.10691,1.10691,0,1,1-1.10695-1.10687A1.107,1.107,0,0,1,305.29569,96.00448Z" transform="translate(-136.0162 -67.58166)"/><path class="cls-112" d="M305.908,95.39216a1.10687,1.10687,0,1,1,1.10687-1.10686A1.10688,1.10688,0,0,1,305.908,95.39216Z" transform="translate(-136.0162 -67.58166)"/><path class="cls-113" d="M302.46956,95.39216a1.10687,1.10687,0,1,1,1.10695-1.10686A1.10686,1.10686,0,0,1,302.46956,95.39216Z" transform="translate(-136.0162 -67.58166)"/><line class="cls-114" y1="327.6147" x2="480.03791" y2="327.6147"/></g></g></svg>