<svg xmlns="http://www.w3.org/2000/svg" xmlns:xlink="http://www.w3.org/1999/xlink" viewBox="0 0 491.15 328.11"><defs><style>.cls-1{isolation:isolate;}.cls-2,.cls-4{fill:#fff;}.cls-2{mix-blend-mode:overlay;}.cls-2,.cls-71{opacity:0.2;}.cls-3{fill:url(#linear-gradient);}.cls-5{fill:url(#linear-gradient-2);}.cls-6{fill:url(#linear-gradient-3);}.cls-7{fill:url(#linear-gradient-4);}.cls-8{fill:url(#linear-gradient-5);}.cls-9{fill:url(#linear-gradient-6);}.cls-10{fill:url(#linear-gradient-7);}.cls-11{fill:url(#linear-gradient-8);}.cls-12{fill:url(#linear-gradient-9);}.cls-13{fill:url(#linear-gradient-10);}.cls-14{fill:url(#linear-gradient-11);}.cls-15{fill:url(#linear-gradient-12);}.cls-16{fill:url(#linear-gradient-13);}.cls-17{fill:url(#linear-gradient-14);}.cls-18{fill:url(#linear-gradient-15);}.cls-19{fill:#edf7ff;}.cls-20,.cls-23,.cls-86{opacity:0.5;}.cls-20{fill:url(#linear-gradient-16);}.cls-21,.cls-35,.cls-69,.cls-87{opacity:0.3;}.cls-21{fill:url(#linear-gradient-17);}.cls-22{fill:url(#linear-gradient-18);}.cls-23{fill:url(#linear-gradient-19);}.cls-24{fill:url(#linear-gradient-20);}.cls-25{fill:url(#linear-gradient-21);}.cls-26{fill:url(#linear-gradient-22);}.cls-27{fill:url(#linear-gradient-23);}.cls-28{fill:url(#linear-gradient-24);}.cls-29{fill:url(#linear-gradient-25);}.cls-30{fill:url(#linear-gradient-26);}.cls-31{fill:url(#linear-gradient-27);}.cls-32{fill:url(#linear-gradient-28);}.cls-33{fill:url(#linear-gradient-29);}.cls-34{fill:url(#linear-gradient-30);}.cls-35,.cls-36{mix-blend-mode:screen;}.cls-35{fill:url(#linear-gradient-31);}.cls-36{opacity:0.6;fill:url(#linear-gradient-32);}.cls-37{fill:url(#linear-gradient-33);}.cls-38{fill:url(#linear-gradient-34);}.cls-39{fill:url(#linear-gradient-35);}.cls-40,.cls-48{mix-blend-mode:color-burn;}.cls-40{fill:url(#linear-gradient-36);}.cls-107,.cls-41,.cls-42,.cls-43,.cls-68,.cls-83,.cls-85,.cls-97{fill:none;}.cls-107,.cls-41,.cls-42,.cls-43,.cls-68,.cls-97{stroke-miterlimit:10;}.cls-41,.cls-42,.cls-43{stroke-width:1.07px;}.cls-41{stroke:url(#linear-gradient-37);}.cls-42{stroke:url(#linear-gradient-38);}.cls-43{stroke:url(#linear-gradient-39);}.cls-44{fill:#efcdaf;}.cls-45{fill:url(#linear-gradient-40);}.cls-46{fill:url(#linear-gradient-41);}.cls-47{fill:url(#linear-gradient-42);}.cls-48{opacity:0.35;fill:url(#linear-gradient-43);}.cls-49{fill:url(#linear-gradient-44);}.cls-50{fill:url(#linear-gradient-45);}.cls-51{fill:url(#linear-gradient-46);}.cls-52{fill:url(#linear-gradient-47);}.cls-53{fill:url(#linear-gradient-48);}.cls-54{fill:url(#linear-gradient-49);}.cls-55{fill:url(#linear-gradient-50);}.cls-56{fill:url(#linear-gradient-51);}.cls-57{fill:url(#linear-gradient-52);}.cls-58{fill:url(#linear-gradient-53);}.cls-59{fill:#e8a77d;}.cls-60{fill:url(#linear-gradient-54);}.cls-61{fill:url(#linear-gradient-55);}.cls-62{fill:url(#linear-gradient-56);}.cls-63{fill:#22256f;}.cls-64{fill:url(#linear-gradient-57);}.cls-65{fill:url(#linear-gradient-58);}.cls-66{fill:url(#linear-gradient-59);}.cls-67{fill:url(#linear-gradient-60);}.cls-68,.cls-83,.cls-85{stroke:#fff;stroke-linecap:round;}.cls-68{stroke-width:1.06px;}.cls-69,.cls-70,.cls-71{fill:#ace2f9;}.cls-70,.cls-88{opacity:0.1;}.cls-72{fill:url(#linear-gradient-61);}.cls-73{fill:url(#linear-gradient-62);}.cls-74{fill:url(#linear-gradient-63);}.cls-75{fill:url(#linear-gradient-64);}.cls-76{fill:url(#linear-gradient-65);}.cls-77{fill:url(#linear-gradient-66);}.cls-78{fill:url(#linear-gradient-67);}.cls-79{fill:url(#linear-gradient-68);}.cls-80{fill:url(#linear-gradient-69);}.cls-81{fill:url(#linear-gradient-70);}.cls-82{fill:#98e7f4;}.cls-83,.cls-85{stroke-linejoin:round;}.cls-83{stroke-width:1.58px;}.cls-84,.cls-86,.cls-87,.cls-88{fill:#bdf3ff;}.cls-85{stroke-width:1.47px;}.cls-89{fill:url(#linear-gradient-71);}.cls-90{fill:url(#linear-gradient-72);}.cls-91{fill:url(#linear-gradient-73);}.cls-92{fill:url(#linear-gradient-74);}.cls-93{fill:url(#linear-gradient-75);}.cls-94{fill:url(#linear-gradient-76);}.cls-95{fill:url(#linear-gradient-77);}.cls-96{fill:url(#linear-gradient-78);}.cls-97{stroke:#edf7ff;stroke-width:0.51px;}.cls-98{fill:url(#linear-gradient-79);}.cls-99{fill:url(#linear-gradient-80);}.cls-100{fill:url(#linear-gradient-81);}.cls-101{fill:url(#linear-gradient-82);}.cls-102{fill:url(#linear-gradient-83);}.cls-103{fill:url(#linear-gradient-84);}.cls-104{fill:url(#linear-gradient-85);}.cls-105{fill:url(#linear-gradient-86);}.cls-106{fill:url(#linear-gradient-87);}.cls-107{stroke:url(#linear-gradient-88);}.cls-108{fill:red;}</style><linearGradient id="linear-gradient" x1="349.75" y1="200.66" x2="406.38" y2="335.23" gradientTransform="translate(572.6 -151.17) rotate(80.75)" gradientUnits="userSpaceOnUse"><stop offset="0" stop-color="#2b398e"/><stop offset="0.15" stop-color="#294093"/><stop offset="0.37" stop-color="#2252a2"/><stop offset="0.61" stop-color="#1770bb"/><stop offset="0.89" stop-color="#0799dd"/><stop offset="1" stop-color="#00aced"/></linearGradient><linearGradient id="linear-gradient-2" x1="281.82" y1="-4.41" x2="328.56" y2="42.34" gradientUnits="userSpaceOnUse"><stop offset="0" stop-color="#f9dd68"/><stop offset="1" stop-color="#f9a942"/></linearGradient><linearGradient id="linear-gradient-3" x1="433.25" y1="92.12" x2="449.1" y2="76.28" gradientUnits="userSpaceOnUse"><stop offset="0" stop-color="#10274a"/><stop offset="1" stop-color="#00347f"/></linearGradient><linearGradient id="linear-gradient-4" x1="427.35" y1="97.06" x2="455.73" y2="125.45" xlink:href="#linear-gradient-3"/><linearGradient id="linear-gradient-5" x1="440.23" y1="101.72" x2="459.63" y2="121.12" gradientUnits="userSpaceOnUse"><stop offset="0" stop-color="#fff"/><stop offset="1" stop-color="#79d3fd"/></linearGradient><linearGradient id="linear-gradient-6" x1="431.23" y1="109.36" x2="435.88" y2="114.01" xlink:href="#linear-gradient-3"/><linearGradient id="linear-gradient-7" x1="432.28" y1="110.4" x2="434.91" y2="113.04" xlink:href="#linear-gradient-5"/><linearGradient id="linear-gradient-8" x1="293.28" y1="155.09" x2="317.34" y2="179.16" xlink:href="#linear-gradient-2"/><linearGradient id="linear-gradient-9" x1="293.08" y1="155.29" x2="317.14" y2="179.35" xlink:href="#linear-gradient-2"/><linearGradient id="linear-gradient-10" x1="-185.01" y1="336.49" x2="-214.06" y2="336.49" gradientTransform="matrix(1, 0, 0, -1, 739.59, 672.97)" gradientUnits="userSpaceOnUse"><stop offset="0" stop-color="#00006c"/><stop offset="1" stop-color="#5793fb"/></linearGradient><linearGradient id="linear-gradient-11" x1="-195.58" y1="395.19" x2="-195.58" y2="282.25" gradientTransform="matrix(1, 0, 0, -1, 734.04, 672.97)" gradientUnits="userSpaceOnUse"><stop offset="0" stop-color="#5793fb"/><stop offset="0.99" stop-color="#00009a"/></linearGradient><linearGradient id="linear-gradient-12" x1="-202.17" y1="309.13" x2="-202.17" y2="235.45" gradientTransform="matrix(-1, 0, 0, 1, 342.87, 0)" xlink:href="#linear-gradient-10"/><linearGradient id="linear-gradient-13" x1="-200.31" y1="307.03" x2="-200.31" y2="234.99" gradientTransform="matrix(-1, 0, 0, 1, 342.87, 0)" gradientUnits="userSpaceOnUse"><stop offset="0" stop-color="#a6e5d4"/><stop offset="1" stop-color="#79d3fd"/></linearGradient><linearGradient id="linear-gradient-14" x1="499.88" y1="269.59" x2="586.48" y2="269.59" gradientUnits="userSpaceOnUse"><stop offset="0" stop-color="#2c89fb"/><stop offset="1" stop-color="#0059ff"/></linearGradient><linearGradient id="linear-gradient-15" x1="525.39" y1="260.32" x2="555.78" y2="260.32" gradientTransform="matrix(1, 0, 0, 1, 0, 0)" xlink:href="#linear-gradient-13"/><linearGradient id="linear-gradient-16" x1="557.24" y1="281.19" x2="573.93" y2="281.19" gradientTransform="matrix(1, 0, 0, 1, 0, 0)" xlink:href="#linear-gradient-13"/><linearGradient id="linear-gradient-17" x1="529.31" y1="287.96" x2="563.66" y2="287.96" gradientTransform="matrix(1, 0, 0, 1, 0, 0)" xlink:href="#linear-gradient-13"/><linearGradient id="linear-gradient-18" x1="532.58" y1="288.23" x2="560.42" y2="288.23" gradientTransform="matrix(1, 0, 0, 1, 0, 0)" xlink:href="#linear-gradient-13"/><linearGradient id="linear-gradient-19" x1="561.26" y1="249.85" x2="577.96" y2="249.85" gradientTransform="matrix(1, 0, 0, 1, 0, 0)" xlink:href="#linear-gradient-13"/><linearGradient id="linear-gradient-20" x1="-40.79" y1="257.22" x2="-32.19" y2="257.22" gradientTransform="matrix(-1, 0, -0.32, 1, 613.19, 0)" gradientUnits="userSpaceOnUse"><stop offset="0" stop-color="#fff"/><stop offset="1" stop-color="#e2f5ff"/></linearGradient><linearGradient id="linear-gradient-21" x1="-41.04" y1="258.77" x2="-32.44" y2="258.77" xlink:href="#linear-gradient-20"/><linearGradient id="linear-gradient-22" x1="-41.29" y1="260.32" x2="-32.68" y2="260.32" xlink:href="#linear-gradient-20"/><linearGradient id="linear-gradient-23" x1="-41.53" y1="261.86" x2="-37.22" y2="261.86" xlink:href="#linear-gradient-20"/><linearGradient id="linear-gradient-24" x1="2.92" y1="283.81" x2="11.52" y2="283.81" xlink:href="#linear-gradient-20"/><linearGradient id="linear-gradient-25" x1="2.67" y1="285.35" x2="11.28" y2="285.35" xlink:href="#linear-gradient-20"/><linearGradient id="linear-gradient-26" x1="2.43" y1="286.9" x2="11.03" y2="286.9" xlink:href="#linear-gradient-20"/><linearGradient id="linear-gradient-27" x1="2.18" y1="288.45" x2="6.49" y2="288.45" xlink:href="#linear-gradient-20"/><linearGradient id="linear-gradient-28" x1="10.46" y1="248.71" x2="19.06" y2="248.71" xlink:href="#linear-gradient-20"/><linearGradient id="linear-gradient-29" x1="10.21" y1="250.26" x2="18.82" y2="250.26" xlink:href="#linear-gradient-20"/><linearGradient id="linear-gradient-30" x1="9.97" y1="251.81" x2="14.28" y2="251.81" xlink:href="#linear-gradient-20"/><linearGradient id="linear-gradient-31" x1="238.82" y1="230.41" x2="238.82" y2="94.23" gradientUnits="userSpaceOnUse"><stop offset="0" stop-color="#8affff"/><stop offset="1" stop-color="#79d3fd" stop-opacity="0"/></linearGradient><linearGradient id="linear-gradient-32" x1="233.58" y1="234.49" x2="233.58" y2="9.73" xlink:href="#linear-gradient-31"/><linearGradient id="linear-gradient-33" x1="238.82" y1="346.3" x2="238.82" y2="240.63" gradientUnits="userSpaceOnUse"><stop offset="0" stop-color="#8affff"/><stop offset="1" stop-color="#423bfd"/></linearGradient><linearGradient id="linear-gradient-34" x1="238.82" y1="327.42" x2="238.82" y2="245.12" gradientUnits="userSpaceOnUse"><stop offset="0" stop-color="#8affff"/><stop offset="1" stop-color="#79d3fd"/></linearGradient><linearGradient id="linear-gradient-35" x1="193.08" y1="236.47" x2="284.57" y2="236.47" xlink:href="#linear-gradient-34"/><linearGradient id="linear-gradient-36" x1="195.88" y1="244.77" x2="303.83" y2="244.77" gradientUnits="userSpaceOnUse"><stop offset="0" stop-color="#2e3e9d"/><stop offset="1" stop-color="#79d3fd"/></linearGradient><linearGradient id="linear-gradient-37" x1="228.24" y1="327.65" x2="228.24" y2="242.53" gradientUnits="userSpaceOnUse"><stop offset="0" stop-color="#79d3fd"/><stop offset="1" stop-color="#fff"/></linearGradient><linearGradient id="linear-gradient-38" x1="238.82" y1="327.65" x2="238.82" y2="242.53" xlink:href="#linear-gradient-37"/><linearGradient id="linear-gradient-39" x1="249.41" y1="327.65" x2="249.41" y2="242.53" xlink:href="#linear-gradient-37"/><linearGradient id="linear-gradient-40" x1="495" y1="391.71" x2="513.06" y2="391.71" gradientUnits="userSpaceOnUse"><stop offset="0" stop-color="aqua"/><stop offset="1" stop-color="#5793fb"/></linearGradient><linearGradient id="linear-gradient-41" x1="457.78" y1="390.34" x2="475.62" y2="390.34" xlink:href="#linear-gradient-40"/><linearGradient id="linear-gradient-42" x1="478.33" y1="299.26" x2="478.33" y2="368.82" gradientUnits="userSpaceOnUse"><stop offset="0" stop-color="#00004f"/><stop offset="1" stop-color="#000079"/></linearGradient><linearGradient id="linear-gradient-43" x1="487.27" y1="317.23" x2="487.27" y2="343.19" gradientUnits="userSpaceOnUse"><stop offset="0" stop-color="#00006c"/><stop offset="1" stop-color="#3049b9"/></linearGradient><linearGradient id="linear-gradient-44" x1="493.05" y1="295.68" x2="493.05" y2="368.2" xlink:href="#linear-gradient-42"/><linearGradient id="linear-gradient-45" x1="500.91" y1="211.13" x2="500.91" y2="235.94" gradientUnits="userSpaceOnUse"><stop offset="0" stop-color="#00b5ff"/><stop offset="1" stop-color="#3049b9"/></linearGradient><linearGradient id="linear-gradient-46" x1="488.11" y1="299.23" x2="488.11" y2="248.72" gradientUnits="userSpaceOnUse"><stop offset="0" stop-color="#7995fd"/><stop offset="1" stop-color="#54deff"/></linearGradient><linearGradient id="linear-gradient-47" x1="506.84" y1="267.72" x2="498.67" y2="251.16" xlink:href="#linear-gradient-46"/><linearGradient id="linear-gradient-48" x1="245.61" y1="301.36" x2="252.11" y2="387.68" gradientTransform="matrix(1, 0, 0, 1, 0, 0)" xlink:href="#linear-gradient-10"/><linearGradient id="linear-gradient-49" x1="228.64" y1="296.58" x2="235.06" y2="381.85" gradientTransform="matrix(1, 0, 0, 1, 0, 0)" xlink:href="#linear-gradient-10"/><linearGradient id="linear-gradient-50" x1="275" y1="390.78" x2="255.07" y2="394.4" xlink:href="#linear-gradient-43"/><linearGradient id="linear-gradient-51" x1="249.27" y1="392.68" x2="263.22" y2="390.25" xlink:href="#linear-gradient-40"/><linearGradient id="linear-gradient-52" x1="211.28" y1="387.6" x2="226.49" y2="395.47" xlink:href="#linear-gradient-40"/><linearGradient id="linear-gradient-53" x1="248.6" y1="219.3" x2="244.69" y2="245.09" gradientUnits="userSpaceOnUse"><stop offset="0" stop-color="#000051"/><stop offset="1" stop-color="#30389c"/></linearGradient><linearGradient id="linear-gradient-54" x1="242.85" y1="218.42" x2="238.94" y2="244.22" xlink:href="#linear-gradient-53"/><linearGradient id="linear-gradient-55" x1="262.19" y1="277.07" x2="262.19" y2="252.48" xlink:href="#linear-gradient-46"/><linearGradient id="linear-gradient-56" x1="239.81" y1="302.46" x2="239.81" y2="252.38" xlink:href="#linear-gradient-46"/><linearGradient id="linear-gradient-57" x1="245.76" y1="292.23" x2="230.7" y2="261.87" gradientTransform="translate(519.18 514.44) rotate(170.76)" gradientUnits="userSpaceOnUse"><stop offset="0" stop-color="#160ec0"/><stop offset="1" stop-color="#5451ff"/></linearGradient><linearGradient id="linear-gradient-58" x1="227.81" y1="275.87" x2="227.81" y2="255.24" xlink:href="#linear-gradient-46"/><linearGradient id="linear-gradient-59" x1="76.49" y1="106.34" x2="126.5" y2="106.34" xlink:href="#linear-gradient-14"/><linearGradient id="linear-gradient-60" x1="80.93" y1="106.34" x2="103.34" y2="106.34" xlink:href="#linear-gradient-34"/><linearGradient id="linear-gradient-61" x1="254.22" y1="104.38" x2="294.99" y2="104.38" xlink:href="#linear-gradient-14"/><linearGradient id="linear-gradient-62" x1="393.3" y1="179.66" x2="418.02" y2="179.66" xlink:href="#linear-gradient-34"/><linearGradient id="linear-gradient-63" x1="402.35" y1="175.62" x2="428.16" y2="175.62" xlink:href="#linear-gradient-34"/><linearGradient id="linear-gradient-64" x1="400.56" y1="158.1" x2="410.15" y2="167.69" xlink:href="#linear-gradient-2"/><linearGradient id="linear-gradient-65" x1="479.53" y1="152.34" x2="495" y2="152.34" xlink:href="#linear-gradient-14"/><linearGradient id="linear-gradient-66" x1="470.47" y1="169.29" x2="504.06" y2="169.29" xlink:href="#linear-gradient-14"/><linearGradient id="linear-gradient-67" x1="505.41" y1="135.57" x2="506.74" y2="136.89" xlink:href="#linear-gradient-2"/><linearGradient id="linear-gradient-68" x1="509.68" y1="135.57" x2="511.01" y2="136.89" xlink:href="#linear-gradient-2"/><linearGradient id="linear-gradient-69" x1="513.95" y1="135.57" x2="515.28" y2="136.89" xlink:href="#linear-gradient-2"/><linearGradient id="linear-gradient-70" x1="461.79" y1="129.16" x2="512.74" y2="180.12" xlink:href="#linear-gradient-2"/><linearGradient id="linear-gradient-71" x1="215.07" y1="32" x2="256.76" y2="73.69" xlink:href="#linear-gradient-14"/><linearGradient id="linear-gradient-72" x1="221.66" y1="37.24" x2="250.63" y2="66.22" xlink:href="#linear-gradient-2"/><linearGradient id="linear-gradient-73" x1="363.57" y1="125.83" x2="381.16" y2="143.42" xlink:href="#linear-gradient-3"/><linearGradient id="linear-gradient-74" x1="371.55" y1="128.72" x2="383.58" y2="140.74" xlink:href="#linear-gradient-5"/><linearGradient id="linear-gradient-75" x1="229.96" y1="65.87" x2="232.84" y2="68.75" xlink:href="#linear-gradient-3"/><linearGradient id="linear-gradient-76" x1="366.62" y1="134.1" x2="368.26" y2="135.73" xlink:href="#linear-gradient-5"/><linearGradient id="linear-gradient-77" x1="368.16" y1="115.72" x2="376.79" y2="124.35" xlink:href="#linear-gradient-3"/><linearGradient id="linear-gradient-78" x1="139.44" y1="8.83" x2="179.03" y2="48.42" xlink:href="#linear-gradient-14"/><linearGradient id="linear-gradient-79" x1="285.37" y1="87.22" x2="288.22" y2="90.07" gradientUnits="userSpaceOnUse"><stop offset="0" stop-color="#2e48cd"/><stop offset="1" stop-color="#1f237e"/></linearGradient><linearGradient id="linear-gradient-80" x1="589.62" y1="87.22" x2="592.48" y2="90.07" gradientTransform="matrix(-1, 0, 0, 1, 894.14, 0)" xlink:href="#linear-gradient-79"/><linearGradient id="linear-gradient-81" x1="288.86" y1="97.25" x2="292.42" y2="97.25" xlink:href="#linear-gradient-79"/><linearGradient id="linear-gradient-82" x1="297.47" y1="97.25" x2="301.03" y2="97.25" xlink:href="#linear-gradient-79"/><linearGradient id="linear-gradient-83" x1="282.39" y1="94.29" x2="288.04" y2="94.29" xlink:href="#linear-gradient-46"/><linearGradient id="linear-gradient-84" x1="306.94" y1="95.32" x2="302.41" y2="90.79" xlink:href="#linear-gradient-46"/><linearGradient id="linear-gradient-85" x1="305.22" y1="97.04" x2="300.69" y2="92.51" xlink:href="#linear-gradient-46"/><linearGradient id="linear-gradient-86" x1="306.94" y1="95.32" x2="302.41" y2="90.79" xlink:href="#linear-gradient-46"/><linearGradient id="linear-gradient-87" x1="305.22" y1="97.03" x2="300.69" y2="92.51" xlink:href="#linear-gradient-46"/><linearGradient id="linear-gradient-88" y1="327.61" x2="480.04" y2="327.61" gradientUnits="userSpaceOnUse"><stop offset="0" stop-color="#2effff"/><stop offset="1" stop-color="#79d3fd"/></linearGradient></defs><g class="cls-1"><g id="OBJECTS"><path class="cls-2" d="M616.37,147.65" transform="translate(-136.02 -67.58)"/><path class="cls-2" d="M558.72,173.26" transform="translate(-136.02 -67.58)"/><circle class="cls-3" cx="375.19" cy="261.12" r="46.76" transform="matrix(0.16, -0.99, 0.99, 0.16, -78.87, 521.87)"/><path class="cls-4" d="M347.31,245.53h6.34l4.92,19.26h.09V245.53h4.5v32.18H358l-6.07-23.49h-.09v23.49h-4.5Z" transform="translate(-136.02 -67.58)"/><path class="cls-4" d="M370.23,245.53H383.6v4.6h-8.31v9h6.52v4.6h-6.52v14h-5.06Z" transform="translate(-136.02 -67.58)"/><path class="cls-4" d="M393.75,250.13h-5.28v-4.6H404.1v4.6h-5.29v27.58h-5.06Z" transform="translate(-136.02 -67.58)"/><rect class="cls-4" x="207.93" y="214.09" width="62.49" height="3.22"/><rect class="cls-4" x="207.93" y="169.78" width="62.49" height="3.22"/><rect class="cls-5" x="280.52" width="51.03" height="39.61" rx="4.33"/><path class="cls-6" d="M435.74,79.2l12.8,7.39a.91.91,0,0,1,0,1.59l-12.8,7.4a.92.92,0,0,1-1.38-.8V80A.92.92,0,0,1,435.74,79.2Z" transform="translate(-136.02 -67.58)"/><path class="cls-7" d="M466.45,112.89H417.66a1.12,1.12,0,0,1-1.12-1.12h0a1.12,1.12,0,0,1,1.12-1.12h48.79a1.12,1.12,0,0,1,1.12,1.12h0A1.12,1.12,0,0,1,466.45,112.89Z" transform="translate(-136.02 -67.58)"/><path class="cls-8" d="M467.57,111.77a1.12,1.12,0,0,1-1.12,1.12H433.64v-2.24h32.81A1.12,1.12,0,0,1,467.57,111.77Z" transform="translate(-136.02 -67.58)"/><path class="cls-9" d="M436.65,111.77a3,3,0,1,1-3-3A3,3,0,0,1,436.65,111.77Z" transform="translate(-136.02 -67.58)"/><path class="cls-10" d="M435.35,111.77a1.71,1.71,0,1,1-1.71-1.71A1.71,1.71,0,0,1,435.35,111.77Z" transform="translate(-136.02 -67.58)"/><path class="cls-11" d="M305.89,184.32a16.61,16.61,0,1,1,16.61-16.61A16.63,16.63,0,0,1,305.89,184.32Zm0-31a14.42,14.42,0,1,0,14.42,14.42A14.44,14.44,0,0,0,305.89,153.29Z" transform="translate(-136.02 -67.58)"/><path class="cls-12" d="M313.21,171.63a4.13,4.13,0,0,0-.81-2.65,5.3,5.3,0,0,0-2.06-1.54,18.73,18.73,0,0,0-2.89-.91v-5.36a10.64,10.64,0,0,1,2.45.63,1.45,1.45,0,0,0,1.89-.79,1.48,1.48,0,0,0,0-1.15,1.32,1.32,0,0,0-.73-.72,13.25,13.25,0,0,0-3.6-.81V156.7a1.56,1.56,0,1,0-3.12,0v1.7a7.32,7.32,0,0,0-4.23,1.82,4.85,4.85,0,0,0-1.52,3.6,4.16,4.16,0,0,0,.8,2.67,5.4,5.4,0,0,0,2.09,1.56,19.26,19.26,0,0,0,2.86.93v5.29a11.68,11.68,0,0,1-2.73-.65c-.32-.12-.62-.24-.91-.38a1.3,1.3,0,0,0-.55-.12,1.5,1.5,0,0,0-.47.08,1.51,1.51,0,0,0-.84.79,1.47,1.47,0,0,0,.71,1.92,12.74,12.74,0,0,0,1.33.51,14.63,14.63,0,0,0,3.46.67v1.63a1.56,1.56,0,1,0,3.12,0V177a7.42,7.42,0,0,0,4.25-1.82A4.75,4.75,0,0,0,313.21,171.63ZM302.84,165a1.77,1.77,0,0,1-.64-1.39,2.14,2.14,0,0,1,.58-1.48,3.11,3.11,0,0,1,1.55-.83v4.45A4.31,4.31,0,0,1,302.84,165Zm6.15,8.39a3.24,3.24,0,0,1-1.54.77v-4.38a4.65,4.65,0,0,1,1.5.8,1.75,1.75,0,0,1,.63,1.38A2,2,0,0,1,309,173.38Z" transform="translate(-136.02 -67.58)"/><rect class="cls-13" x="526.54" y="277.78" width="29.38" height="117.41" transform="translate(946.44 605.39) rotate(180)"/><rect class="cls-14" x="524.89" y="277.78" width="27.13" height="117.41" transform="translate(940.9 605.39) rotate(180)"/><path class="cls-15" d="M496.06,306.69l4.16-.49,11.12-70.11a1.37,1.37,0,0,1,1.36-1.16h76.89l.76-2.4,3,1.93.1.07h0a1.36,1.36,0,0,1,.51,1.29L582.57,308a1.38,1.38,0,0,1-1.36,1.16h-81a1.35,1.35,0,0,1-.91-.36h0Z" transform="translate(-136.02 -67.58)"/><path class="cls-16" d="M497,307h81a1.38,1.38,0,0,0,1.36-1.16l11.44-72.14a1.38,1.38,0,0,0-1.36-1.59h-81a1.37,1.37,0,0,0-1.36,1.16l-11.44,72.14A1.37,1.37,0,0,0,497,307Z" transform="translate(-136.02 -67.58)"/><path class="cls-17" d="M500.75,303.61h74.34a.87.87,0,0,0,.86-.74l10.52-66.29a.88.88,0,0,0-.86-1H511.27a.88.88,0,0,0-.87.73l-10.51,66.3A.87.87,0,0,0,500.75,303.61Z" transform="translate(-136.02 -67.58)"/><path class="cls-18" d="M526.5,272.36h24.71a1.11,1.11,0,0,0,1.09-.93l3.47-21.88a1.11,1.11,0,0,0-1.09-1.28H530a1.11,1.11,0,0,0-1.1.93l-3.47,21.88A1.12,1.12,0,0,0,526.5,272.36Z" transform="translate(-136.02 -67.58)"/><path class="cls-19" d="M531.19,269.39h-1.7a.37.37,0,0,1-.38-.45l2-12.85a.55.55,0,0,1,.52-.46h1.71a.38.38,0,0,1,.38.46l-2,12.85A.55.55,0,0,1,531.19,269.39Z" transform="translate(-136.02 -67.58)"/><path class="cls-19" d="M535.6,269.39h-1.71a.37.37,0,0,1-.38-.45l1.62-10.19a.54.54,0,0,1,.52-.45h1.71a.37.37,0,0,1,.38.45l-1.62,10.19A.54.54,0,0,1,535.6,269.39Z" transform="translate(-136.02 -67.58)"/><path class="cls-19" d="M540,269.39h-1.7a.37.37,0,0,1-.38-.45l1.92-12.09a.55.55,0,0,1,.52-.46h1.71a.38.38,0,0,1,.38.46l-1.92,12.09A.55.55,0,0,1,540,269.39Z" transform="translate(-136.02 -67.58)"/><path class="cls-19" d="M544.41,269.39H542.7a.37.37,0,0,1-.38-.45l2.87-18.08a.57.57,0,0,1,.53-.45h1.7a.38.38,0,0,1,.38.45l-2.87,18.08A.54.54,0,0,1,544.41,269.39Z" transform="translate(-136.02 -67.58)"/><path class="cls-19" d="M548.81,269.39h-1.7a.37.37,0,0,1-.38-.45L549,254.62a.56.56,0,0,1,.52-.46h1.71a.38.38,0,0,1,.38.46l-2.27,14.32A.55.55,0,0,1,548.81,269.39Z" transform="translate(-136.02 -67.58)"/><path class="cls-20" d="M557.85,287.8h13.56a.6.6,0,0,0,.6-.51l1.91-12a.61.61,0,0,0-.6-.7H559.75a.59.59,0,0,0-.59.51l-1.91,12A.61.61,0,0,0,557.85,287.8Z" transform="translate(-136.02 -67.58)"/><path class="cls-21" d="M530.13,297h30.11a.82.82,0,0,0,.82-.7l2.59-16.34a.82.82,0,0,0-.81-.95H532.73a.82.82,0,0,0-.82.69L529.32,296A.82.82,0,0,0,530.13,297Z" transform="translate(-136.02 -67.58)"/><path class="cls-22" d="M533.67,286l-1.09,6.9h26.48l1.36-8.54a4.27,4.27,0,0,0-3.88.35c-1.75,1-4.28,3.72-6,3.53s-2.83-4.67-5.21-4.63-4.31,4.92-6.22,5S534.92,285.93,533.67,286Z" transform="translate(-136.02 -67.58)"/><path class="cls-23" d="M561.66,254.22H576.3a.4.4,0,0,0,.39-.34l1.26-7.94a.4.4,0,0,0-.39-.47H562.92a.4.4,0,0,0-.39.34l-1.26,7.94A.4.4,0,0,0,561.66,254.22Z" transform="translate(-136.02 -67.58)"/><path class="cls-24" d="M564.25,257.63H572a.5.5,0,0,0,.47-.41h0a.35.35,0,0,0-.34-.42h-7.77a.51.51,0,0,0-.48.42h0A.34.34,0,0,0,564.25,257.63Z" transform="translate(-136.02 -67.58)"/><path class="cls-25" d="M564,259.18h7.77a.51.51,0,0,0,.48-.41h0a.35.35,0,0,0-.35-.42h-7.77a.5.5,0,0,0-.47.42h0A.34.34,0,0,0,564,259.18Z" transform="translate(-136.02 -67.58)"/><path class="cls-26" d="M563.76,260.73h7.76a.5.5,0,0,0,.48-.41h0a.35.35,0,0,0-.34-.42h-7.77a.51.51,0,0,0-.48.42h0A.34.34,0,0,0,563.76,260.73Z" transform="translate(-136.02 -67.58)"/><path class="cls-27" d="M567.81,262.28h3.47a.51.51,0,0,0,.48-.42h0a.35.35,0,0,0-.35-.41h-3.47a.51.51,0,0,0-.48.41h0A.35.35,0,0,0,567.81,262.28Z" transform="translate(-136.02 -67.58)"/><path class="cls-28" d="M512.11,284.22h7.77a.51.51,0,0,0,.48-.41h0a.35.35,0,0,0-.35-.42h-7.77a.5.5,0,0,0-.47.42h0A.34.34,0,0,0,512.11,284.22Z" transform="translate(-136.02 -67.58)"/><path class="cls-29" d="M511.87,285.77h7.77a.5.5,0,0,0,.47-.42h0a.34.34,0,0,0-.34-.41H512a.51.51,0,0,0-.48.41h0A.35.35,0,0,0,511.87,285.77Z" transform="translate(-136.02 -67.58)"/><path class="cls-30" d="M511.62,287.32h7.77a.51.51,0,0,0,.48-.42h0a.35.35,0,0,0-.35-.41h-7.77a.5.5,0,0,0-.47.41h0A.34.34,0,0,0,511.62,287.32Z" transform="translate(-136.02 -67.58)"/><path class="cls-31" d="M515.67,288.87h3.47a.5.5,0,0,0,.48-.42h0a.34.34,0,0,0-.34-.41h-3.47a.49.49,0,0,0-.48.41h0A.35.35,0,0,0,515.67,288.87Z" transform="translate(-136.02 -67.58)"/><path class="cls-32" d="M515.69,249.12h7.77a.51.51,0,0,0,.48-.41h0a.34.34,0,0,0-.35-.41h-7.77a.5.5,0,0,0-.48.41h0A.34.34,0,0,0,515.69,249.12Z" transform="translate(-136.02 -67.58)"/><path class="cls-33" d="M515.44,250.67h7.77a.5.5,0,0,0,.48-.41h0a.34.34,0,0,0-.35-.41h-7.76a.49.49,0,0,0-.48.41h0A.34.34,0,0,0,515.44,250.67Z" transform="translate(-136.02 -67.58)"/><path class="cls-34" d="M519.5,252.22H523a.49.49,0,0,0,.47-.41h0a.34.34,0,0,0-.34-.41h-3.47a.49.49,0,0,0-.48.41h0A.34.34,0,0,0,519.5,252.22Z" transform="translate(-136.02 -67.58)"/><polygon class="cls-35" points="269.13 230.41 208.52 230.41 162.94 91.37 314.71 91.37 269.13 230.41"/><polygon class="cls-36" points="283.25 234.49 194.4 234.49 95.67 5.01 371.49 7.93 283.25 234.49"/><rect class="cls-37" x="197.02" y="230.41" width="83.61" height="97.21"/><rect class="cls-38" x="213.88" y="230.41" width="49.88" height="97.21"/><rect class="cls-39" x="193.08" y="230.41" width="91.49" height="12.12" rx="0.71"/><rect class="cls-40" x="197.02" y="242.53" width="83.61" height="4.48"/><line class="cls-41" x1="228.24" y1="242.53" x2="228.24" y2="327.65"/><line class="cls-42" x1="238.82" y1="242.53" x2="238.82" y2="327.65"/><line class="cls-43" x1="249.41" y1="242.53" x2="249.41" y2="327.65"/><path class="cls-44" d="M517.61,249.44a.39.39,0,0,0-.35-.07.2.2,0,0,0,0-.14c-.14-.13-.58,0-1.07.1a.19.19,0,0,0,0-.23c-.21-.18-.63,0-.63,0l-2.77,1.22-.1.13a2.44,2.44,0,0,0-.31.22,10.29,10.29,0,0,0-1.09,1.18,6.79,6.79,0,0,1-2.74,2l-11.08,4.48,8.88.6s3.73-2.39,4.83-2.62,2.53-.15,3.1-.75,2.12-2.08,2.06-2.71c0-.47-.45-.36-.58-.3a13.55,13.55,0,0,0-1.55,1.18c-.23.14-1.11.31-1.4-.08l1.51-1.57a14.8,14.8,0,0,1,2.13-1.43C517.42,250.14,517.82,249.62,517.61,249.44Z" transform="translate(-136.02 -67.58)"/><path class="cls-44" d="M496.07,382l.29,6.4s3.63,1.56,6.51,0l.78-7.74" transform="translate(-136.02 -67.58)"/><path class="cls-45" d="M496.36,388.36a5.07,5.07,0,0,0-1.27,2.59,19.3,19.3,0,0,0,.07,3.92c0,.17,4.21.09,8.49.11,4.47,0,9,.17,9.38,0,.69-.32-10.16-6.63-10.16-6.63A16,16,0,0,1,496.36,388.36Z" transform="translate(-136.02 -67.58)"/><path class="cls-44" d="M463,379.33l-1.85,6.13s2.59,2.64,5.83,2.12l3.13-7.51" transform="translate(-136.02 -67.58)"/><path class="cls-46" d="M459.09,387.5a5.07,5.07,0,0,1,2.05-2c.84.75,6,2.19,6,2.19s0,.22.95,1.2c.74.75,1.61,1.66,2.55,2.47.49.15,5.61,3.37,4.92,3.68s-5.3.22-6.94.15c-.39,0-5.74-2.17-7.52-2.83s-3.41-1.47-3.3-1.8A22.71,22.71,0,0,1,459.09,387.5Z" transform="translate(-136.02 -67.58)"/><path class="cls-47" d="M494.59,295s-2.69,24.29-4.11,36.58c-.46,4-.79,6.73-.84,6.94-.84,3.19-2.11,7.11-3.57,11.3-5.52,15.74-13.81,35-13.81,35s-6.45-1.06-10.19-3.7l9.43-43.78s-.51-35.2-.77-41Z" transform="translate(-136.02 -67.58)"/><path class="cls-48" d="M490.48,331.56c-.46,4-.79,6.73-.84,6.94-.84,3.19-2.11,7.11-3.57,11.3-.28-4.44-2-33.72-2-33.72Z" transform="translate(-136.02 -67.58)"/><path class="cls-44" d="M508.11,225.07c-.67,3.67-2.6,11.35-4.59,14.21a1.19,1.19,0,0,1-1.25.48c-2.17-.49-9.4-2.76-10.7-11.23-1.53-10,5.77-11.95,9.19-11.12S509.25,218.89,508.11,225.07Z" transform="translate(-136.02 -67.58)"/><path class="cls-49" d="M504.76,292.81l1.45,42.09L504.28,386s-6.5,1.12-11.23.36c0,0-4.3-39.45-4.53-45.06-.3-7.19-8.82-44.12-8.62-48.82" transform="translate(-136.02 -67.58)"/><path class="cls-44" d="M500.67,237.2a59.21,59.21,0,0,0-1.48,7.59s-6.21-.21-9.8-2.16a47.53,47.53,0,0,0,3.09-13.24" transform="translate(-136.02 -67.58)"/><path class="cls-50" d="M512.22,220.79a2.45,2.45,0,0,0-1.38-1.37,11.73,11.73,0,0,1-1.44-.38c-1.18-.58-1.23-2.31-2.22-3.17a3.16,3.16,0,0,0-1.17-.59,8,8,0,0,0-3.31-.29,4.8,4.8,0,0,1-1.51.07,5,5,0,0,1-.8-.27,5.09,5.09,0,0,0-3.31-.18,3.47,3.47,0,0,0-1.18.67c-3.51,1.22-2.43,3.57-2.43,3.57-2.44.55-4,1.84-4.07,6.3s.62,10.11,1.21,10.91,5.65,2.19,8.08,1c.8-.38,3.2-7.49,3.47-8.27a1.09,1.09,0,0,1,.26-.5,1.23,1.23,0,0,1,.87-.15,3.61,3.61,0,0,0,2.06-.57,5.34,5.34,0,0,0,2.35-.3,3.64,3.64,0,0,0,1.46-.94,2.31,2.31,0,0,0,.47-.8,4.05,4.05,0,0,0,2.69-2.79A3.23,3.23,0,0,0,512.22,220.79Z" transform="translate(-136.02 -67.58)"/><path class="cls-51" d="M470.15,298.46c1.16.65,25.9,2.08,34.87-.43,0,0-.07-5.67,0-8.47,0-1.2,1.55-29.93,1.1-37.52,0,0-2.28-6.42-7-7.78a90.38,90.38,0,0,0-11.43-2.39c-2.47.45-7.34,5.31-9,9.78C473.48,265.29,469.19,297.93,470.15,298.46Z" transform="translate(-136.02 -67.58)"/><path class="cls-44" d="M538.47,256.45c-.12,0-.46.09-.92.2.26-.33.18-.68,0-.61s-2,.58-2.39.79S533.3,258,533.3,258h0a2,2,0,0,0-.42.22c-.75.52-1.46,2.13-2.4,2.92a16.7,16.7,0,0,1-2.32,1.54l-15.44,4.19-3.48-7.19L498.35,262s6.24,11.63,9.32,13.9c1.11.82,18.27-8.27,22.27-10.42h0c.69-.36,3.35-.91,4.07-1.93a5.82,5.82,0,0,0,.9-1.71l1.27-1.53s1.42-1,1.53-1.39a.32.32,0,0,0-.17-.42l.48-.35c.56-.52.21-.85.21-.85C538.77,257.05,538.93,256.39,538.47,256.45Z" transform="translate(-136.02 -67.58)"/><path class="cls-52" d="M494.49,251.81c-.29,3.21,4.42,14.66,4.42,14.66a26,26,0,0,0,11.36-5.57s-4.08-10.47-6-12.46C501.86,246,494.93,246.79,494.49,251.81Z" transform="translate(-136.02 -67.58)"/><path class="cls-44" d="M260.6,387.84l-5.19.64-2.18-12,6.9-.36S260.46,387.37,260.6,387.84Z" transform="translate(-136.02 -67.58)"/><path class="cls-44" d="M222.31,378.19s-3.25,9-3.29,9.48l-5.86-1.83,2.24-9.27Z" transform="translate(-136.02 -67.58)"/><path class="cls-53" d="M260.16,338.55c-1.2-10.22-3.6-38.34-4.61-47.85l-18-4.17c-8.73,18.52.34,23.11,2.44,27.2.48.94,1.3,10,4.43,23.88,2,20.3,5.16,44.85,5.16,44.85s8.79.33,11.77-1.25Z" transform="translate(-136.02 -67.58)"/><path class="cls-54" d="M226.66,290.12s-4.38,7.63-3.76,14.41c.54,5.81,1.69,23,2.5,32.3-4.48,14.18-11.08,42-11.08,42a35.92,35.92,0,0,0,7.29,2.69,20.43,20.43,0,0,0,5.12.59s11.75-35.9,13.72-43.24c4.67-17.36,8.19-49,8.19-49Z" transform="translate(-136.02 -67.58)"/><path class="cls-55" d="M272.91,389.55a1.15,1.15,0,0,1,.58,1.69c-.87,1.76-7.68,3.58-11,3.94h-8l12-4.39a21.5,21.5,0,0,1,3.81-1.35A9.75,9.75,0,0,1,272.91,389.55Z" transform="translate(-136.02 -67.58)"/><path class="cls-56" d="M255.32,388a18.24,18.24,0,0,0,5.26-.47S265,389,267.49,389s4.79,0,5.42.51a8,8,0,0,0-5.36,1.4c-7.5,4.43-13,4.23-13,4.23S253.77,390.28,255.32,388Z" transform="translate(-136.02 -67.58)"/><path class="cls-57" d="M227.52,395.19c.39-3-3.31-4.37-5.59-4.78-1.5-.79-2.73-3.37-2.73-3.37a11.77,11.77,0,0,1-5.9-1.79,7,7,0,0,0-1.75,2.42,13.45,13.45,0,0,0-1.05,3.74s2.51,1.64,4.12,2.58a15.18,15.18,0,0,0,4.95,1.2Z" transform="translate(-136.02 -67.58)"/><path class="cls-58" d="M251.29,222a7.44,7.44,0,0,1-.4,7.81,20.58,20.58,0,0,0-2.19,5.75c-.87,3.67.27,10.77.27,10.77s-4.67.64-6.74-.32-.41-12.69-.41-12.69,1.42-6.56,1.65-7.2,4.36-5.54,4.36-5.54Z" transform="translate(-136.02 -67.58)"/><path class="cls-44" d="M244.05,243c-.05-.39.06-7.07.06-7.07l-.6-1-2.72-4.6s-4.37-2.7-4.82,0c-.31,2-.09,12.45-.09,12.45l-4.8,1.68c1.7,4.4,7.67,4.82,7.67,4.82,8.48.8,12.09-4.63,12.09-4.63S244.14,243.33,244.05,243Z" transform="translate(-136.02 -67.58)"/><path class="cls-59" d="M238.27,234.15a9.36,9.36,0,0,0,5.78,5.73v-1.61Z" transform="translate(-136.02 -67.58)"/><path class="cls-44" d="M282.4,250.9c-.07-.42-.19-.79-.39-.87a1.3,1.3,0,0,0-.41-.08l.9-1.11c.28-.33,1.44-1.58,1.5-2.09s-.51-.42-.67-.32a11.41,11.41,0,0,0-1.84,1.75L279.84,250a15,15,0,0,0,.85-1.72.48.48,0,0,0-.26-.55,9.44,9.44,0,0,0-2.45,2.94,10.69,10.69,0,0,0-.42,2.22,4.19,4.19,0,0,1-1.3,1.87l-7.12,5.85,3.51,3.42,6.33-6.84a6.09,6.09,0,0,1,1.68-1.11,3.05,3.05,0,0,0,1-1,3.15,3.15,0,0,0,.37-.76c.08.23.28.31.42.12a7.06,7.06,0,0,0,.67-1.83c0-.31.09-1.4-.12-1.63A.77.77,0,0,0,282.4,250.9Z" transform="translate(-136.02 -67.58)"/><path class="cls-44" d="M251.19,220.73s0,17.29-4.74,17.94c-2.18.3-6.73-2.15-9.06-5.67,0,0-3.49-5-3-10.36S249,213.26,251.19,220.73Z" transform="translate(-136.02 -67.58)"/><path class="cls-60" d="M251.31,229.07s1-3.43-.2-5.31c0,0-.85-1-3.07-.31-1.62.52-4.81,1.75-7.86-.59,0,0,.35,3.95-2.51,5.8a12.55,12.55,0,0,0-1,4c-.06,1.74-.35,6.1-.79,10.12l-5.83,2s.22-2,.39-8.75c.16-6.52-1.93-14.31,3.9-16.62,0,0,1.79-6.1,10-4.81S256.21,222.49,251.31,229.07Z" transform="translate(-136.02 -67.58)"/><path class="cls-44" d="M239.29,228s-1-2.75-2.78-1.37c-1.31,1-1,5.76,1.35,6" transform="translate(-136.02 -67.58)"/><path class="cls-61" d="M271.4,258.7s-4.66,3.52-8.53,6.23c-1.53-3.22-2.19-4.53-5.72-12.71-3-7-5.33-7.41-5.33-7.41l-2.7,17s7.7,13.24,11.69,13.94c2.26.4,10-6.89,14.44-11.68a17.78,17.78,0,0,0-3.15-5A3.65,3.65,0,0,0,271.4,258.7Z" transform="translate(-136.02 -67.58)"/><path class="cls-62" d="M225.6,277c.27,3.65-2.33,20-2.6,22-.13.91.28,1.17.28,1.17s19.54,5.76,33,0c0,0,.52-.19.38-1.42-.24-2.24-2.2-28.7-2.2-28.7a40.37,40.37,0,0,0,2.64-7.1c.54-2.72-2.55-7.45-2.92-9.54s-2.35-8.7-2.35-8.7-1.47-.42-5.89-1.42c0,0-2.9,7.59-12.32,0-.94.18-4.91.93-6.23,1.22l-.33.08a7.56,7.56,0,0,0-3.61,2.8,30.66,30.66,0,0,0-.08,15A97.33,97.33,0,0,1,225.6,277Z" transform="translate(-136.02 -67.58)"/><rect class="cls-63" x="228.8" y="262.86" width="21.54" height="30.68" rx="1.09" transform="translate(228.13 555.97) rotate(-159.1)"/><rect class="cls-64" x="228.04" y="262.86" width="21.54" height="30.68" rx="1.54" transform="translate(293.82 523.55) rotate(-170.76)"/><path class="cls-44" d="M250.86,279c.38,0,.77-.25.6-.48s-2.55-1.26-3.11-1.08-1.45.69-2,.84a7.19,7.19,0,0,1-1.85,0l-7.9-1.71L234,281.16l11.19.66,1.89.81.1,0a5.6,5.6,0,0,0,1.56.4c.68,0,1-.41,1-.7h0c.38-.09.52-.31.53-.53a.61.61,0,0,0-.06-.32.58.58,0,0,0,.48-.53.71.71,0,0,0-.07-.34c.37-.09.51-.31.52-.53a.82.82,0,0,0-.16-.5,7.15,7.15,0,0,0-2.11-.82h0A11.6,11.6,0,0,0,250.86,279Z" transform="translate(-136.02 -67.58)"/><path class="cls-65" d="M237,276.61,227,274.25c1.32-5.11,3-12.88,4.12-17.69,1.32-6-.29-11.29-3.72-12l-.33.08a6.69,6.69,0,0,0-3.7,2.61,21.8,21.8,0,0,0-2.24,6.81s-4.85,25-1.42,26.64c3,1.42,15.16,3.06,15.16,3.06a15.33,15.33,0,0,0,2.16-5.38A2.82,2.82,0,0,0,237,276.61Z" transform="translate(-136.02 -67.58)"/><rect class="cls-66" x="76.49" y="89.51" width="50.01" height="33.66" rx="5.16"/><rect class="cls-67" x="80.93" y="95.14" width="22.42" height="22.42" rx="2.06"/><rect class="cls-19" x="82.48" y="102.39" width="2.49" height="13.13" rx="0.51"/><rect class="cls-19" x="86.68" y="104.94" width="2.49" height="10.59" rx="0.51"/><rect class="cls-19" x="90.89" y="103.12" width="2.49" height="12.41" rx="0.51"/><rect class="cls-19" x="95.09" y="97.41" width="2.49" height="18.12" rx="0.51"/><rect class="cls-19" x="99.3" y="100.99" width="2.49" height="14.53" rx="0.51"/><line class="cls-68" x1="109.23" y1="97.53" x2="121.07" y2="97.53"/><line class="cls-68" x1="109.23" y1="100.13" x2="119.62" y2="100.13"/><line class="cls-68" x1="109.23" y1="102.72" x2="119.62" y2="102.72"/><line class="cls-68" x1="109.23" y1="105.32" x2="121.07" y2="105.32"/><line class="cls-68" x1="109.23" y1="107.92" x2="117.33" y2="107.92"/><line class="cls-68" x1="109.23" y1="110.52" x2="121.07" y2="110.52"/><line class="cls-68" x1="109.23" y1="113.11" x2="121.07" y2="113.11"/><line class="cls-68" x1="109.23" y1="115.71" x2="117.53" y2="115.71"/><path class="cls-69" d="M453.64,321.13c0-.13-.05-.27-.09-.4a11.75,11.75,0,0,0-.44-1.57,13.64,13.64,0,0,0-1.62-3.24l1.59-1.58-3.8-3.79-.07.07-1.5,1.51A14.05,14.05,0,0,0,442.5,310v-2.23h-5.36V310a14,14,0,0,0-5.22,2.16l-1.57-1.58-3.79,3.79,1.58,1.58a14,14,0,0,0-2.16,5.21h-2.23v5.36H426a13.87,13.87,0,0,0,2.15,5.21l-1.58,1.57,3.79,3.8,1.57-1.59a13.85,13.85,0,0,0,5.22,2.15v2.25h5.36v-2.25a13.87,13.87,0,0,0,5.21-2.15l1.5,1.51.07.08,2.28-2.28,1.52-1.52-1.52-1.5-.07-.07.07-.11a13.88,13.88,0,0,0,2.08-5.1h2.25v-5.36Zm-13.82,11.63a9,9,0,1,1,8.94-8.95A8.95,8.95,0,0,1,439.82,332.76Z" transform="translate(-136.02 -67.58)"/><path class="cls-70" d="M575.15,207.72a1.74,1.74,0,0,0,0-.22,6.2,6.2,0,0,0-.24-.87,7.84,7.84,0,0,0-.9-1.81l.88-.88-2.11-2.11,0,0-.84.84a7.93,7.93,0,0,0-2.9-1.2v-1.24h-3v1.24a8,8,0,0,0-2.9,1.2l-.88-.88-2.11,2.11.89.88a7.77,7.77,0,0,0-1.21,2.9h-1.24v3h1.25a7.66,7.66,0,0,0,1.2,2.9l-.89.88,2.11,2.11.88-.89a7.66,7.66,0,0,0,2.9,1.2v1.25h3v-1.25a7.6,7.6,0,0,0,2.9-1.2l.84.85,0,0,1.27-1.27.84-.84-.84-.84,0,0a.21.21,0,0,1,0-.06,7.7,7.7,0,0,0,1.15-2.84h1.25v-3Zm-7.69,6.48a5,5,0,1,1,5-5A5,5,0,0,1,567.46,214.2Z" transform="translate(-136.02 -67.58)"/><path class="cls-71" d="M231.81,195.44a2.61,2.61,0,0,0-.06-.27,7.4,7.4,0,0,0-.29-1,9.46,9.46,0,0,0-1.09-2.18l1.06-1.06-2.55-2.55,0,0-1,1a9.52,9.52,0,0,0-3.5-1.45v-1.5h-3.6v1.5a9.57,9.57,0,0,0-3.51,1.45l-1.06-1.06-2.55,2.55,1.07,1.06a9.35,9.35,0,0,0-1.45,3.5h-1.51V199h1.51a9.4,9.4,0,0,0,1.45,3.51l-1.07,1.06,2.55,2.55,1.06-1.07a9.4,9.4,0,0,0,3.51,1.45v1.51h3.6v-1.51a9.35,9.35,0,0,0,3.5-1.45l1,1,0,0,1.54-1.54,1-1-1-1,0,0a.35.35,0,0,1,0-.08,9.16,9.16,0,0,0,1.39-3.43h1.51v-3.6Zm-9.29,7.82a6,6,0,1,1,6-6A6,6,0,0,1,222.52,203.26Z" transform="translate(-136.02 -67.58)"/><rect class="cls-72" x="254.22" y="85.35" width="40.77" height="38.05" rx="5.35"/><rect class="cls-19" x="257.07" y="88.01" width="35.07" height="32.73" rx="3.51"/><path class="cls-73" d="M418,188.33H396a2.93,2.93,0,0,1-2.74-1.89l9.62-14.33a2.53,2.53,0,0,1,4.2,0l3.06,4.56Z" transform="translate(-136.02 -67.58)"/><path class="cls-74" d="M428.16,172.3v13.07a3,3,0,0,1-3,3H402.35l7.83-11.66,8.58-12.76a2.26,2.26,0,0,1,3.76,0Z" transform="translate(-136.02 -67.58)"/><path class="cls-75" d="M408.52,162.32a3.75,3.75,0,1,1-3.74-3.75A3.73,3.73,0,0,1,408.52,162.32Z" transform="translate(-136.02 -67.58)"/><path class="cls-76" d="M495,152.34c0,4.87-3.46,8.81-7.73,8.81s-7.74-3.94-7.74-8.81,3.46-8.8,7.74-8.8S495,147.48,495,152.34Z" transform="translate(-136.02 -67.58)"/><path class="cls-77" d="M489.7,163.16h0a20.79,20.79,0,0,0-4.86,0h0a17,17,0,0,0-14.37,12.4h33.59A17,17,0,0,0,489.7,163.16Z" transform="translate(-136.02 -67.58)"/><path class="cls-78" d="M507,136.23a.94.94,0,1,1-.94-.94A.94.94,0,0,1,507,136.23Z" transform="translate(-136.02 -67.58)"/><path class="cls-79" d="M511.28,136.23a.94.94,0,1,1-.93-.94A.94.94,0,0,1,511.28,136.23Z" transform="translate(-136.02 -67.58)"/><path class="cls-80" d="M515.55,136.23a.94.94,0,1,1-.93-.94A.94.94,0,0,1,515.55,136.23Z" transform="translate(-136.02 -67.58)"/><path class="cls-81" d="M516.1,133.39H458.43a2.1,2.1,0,0,0-2.1,2.1v38.3a2.1,2.1,0,0,0,2.1,2.1H516.1a2.1,2.1,0,0,0,2.1-2.1v-38.3A2.1,2.1,0,0,0,516.1,133.39Zm-57.67.66H516.1a1.45,1.45,0,0,1,1.44,1.44v2.69H457v-2.69A1.45,1.45,0,0,1,458.43,134.05Zm57.67,41.18H458.43a1.45,1.45,0,0,1-1.44-1.44V138.85h60.55v34.94A1.45,1.45,0,0,1,516.1,175.23Z" transform="translate(-136.02 -67.58)"/><path class="cls-82" d="M305.22,307.7a7.75,7.75,0,1,1-7.78-7.71A7.74,7.74,0,0,1,305.22,307.7Z" transform="translate(-136.02 -67.58)"/><polyline class="cls-83" points="158.05 240.53 161.12 243.48 165.16 237.96"/><path class="cls-84" d="M611.1,269.46a5.83,5.83,0,1,1-5.75-5.89A5.83,5.83,0,0,1,611.1,269.46Z" transform="translate(-136.02 -67.58)"/><polyline class="cls-85" points="466.69 202.05 468.96 204.3 472.08 200.21"/><path class="cls-86" d="M211.82,257.74a2.15,2.15,0,1,1-2.14-2.14A2.14,2.14,0,0,1,211.82,257.74Z" transform="translate(-136.02 -67.58)"/><path class="cls-84" d="M207.65,308.29a1.31,1.31,0,1,1-1.31-1.31A1.3,1.3,0,0,1,207.65,308.29Z" transform="translate(-136.02 -67.58)"/><path class="cls-87" d="M285.33,359a1.32,1.32,0,1,1-1.31-1.31A1.31,1.31,0,0,1,285.33,359Z" transform="translate(-136.02 -67.58)"/><path class="cls-88" d="M179.84,341.5a2.73,2.73,0,1,1-2.72-2.73A2.72,2.72,0,0,1,179.84,341.5Z" transform="translate(-136.02 -67.58)"/><path class="cls-88" d="M627.17,366.78a2.73,2.73,0,1,1-2.73-2.73A2.73,2.73,0,0,1,627.17,366.78Z" transform="translate(-136.02 -67.58)"/><path class="cls-88" d="M402.68,75.32A2.73,2.73,0,1,1,400,72.59,2.73,2.73,0,0,1,402.68,75.32Z" transform="translate(-136.02 -67.58)"/><path class="cls-88" d="M242.91,158a3.63,3.63,0,1,1-3.62-3.63A3.63,3.63,0,0,1,242.91,158Z" transform="translate(-136.02 -67.58)"/><path class="cls-88" d="M566.1,132.89a3.63,3.63,0,1,1-3.63-3.62A3.63,3.63,0,0,1,566.1,132.89Z" transform="translate(-136.02 -67.58)"/><path class="cls-84" d="M542.73,182.78a2.15,2.15,0,1,1-2.14-2.14A2.14,2.14,0,0,1,542.73,182.78Z" transform="translate(-136.02 -67.58)"/><path class="cls-82" d="M518.2,346.59a2.14,2.14,0,1,1-2.14-2.14A2.14,2.14,0,0,1,518.2,346.59Z" transform="translate(-136.02 -67.58)"/><path class="cls-84" d="M383.42,132.21h-1.73v-1.73a.68.68,0,1,0-1.36,0v1.73H378.6a.68.68,0,0,0,0,1.36h1.73v1.73a.68.68,0,1,0,1.36,0v-1.73h1.73a.68.68,0,1,0,0-1.36Z" transform="translate(-136.02 -67.58)"/><path class="cls-84" d="M521.67,222a.67.67,0,0,1-.68-.68v-4.82a.68.68,0,1,1,1.36,0v4.82A.67.67,0,0,1,521.67,222Z" transform="translate(-136.02 -67.58)"/><path class="cls-84" d="M524.08,219.58h-4.82a.68.68,0,0,1,0-1.36h4.82a.68.68,0,1,1,0,1.36Z" transform="translate(-136.02 -67.58)"/><path class="cls-84" d="M292.87,266.3h-1.73v-1.73a.68.68,0,0,0-1.36,0v1.73h-1.73a.69.69,0,0,0,0,1.37h1.73v1.72a.68.68,0,1,0,1.36,0v-1.72h1.73a.69.69,0,0,0,0-1.37Z" transform="translate(-136.02 -67.58)"/><path class="cls-82" d="M554.93,165.24H553.2v-1.72a.69.69,0,1,0-1.37,0v1.72h-1.72a.69.69,0,0,0,0,1.37h1.72v1.73a.69.69,0,0,0,1.37,0v-1.73h1.73a.69.69,0,0,0,0-1.37Z" transform="translate(-136.02 -67.58)"/><path class="cls-86" d="M458.3,275.1h-1.73v-1.72a.69.69,0,1,0-1.37,0v1.72h-1.72a.69.69,0,1,0,0,1.37h1.72v1.73a.69.69,0,0,0,1.37,0v-1.73h1.73a.69.69,0,0,0,0-1.37Z" transform="translate(-136.02 -67.58)"/><rect class="cls-89" x="213.91" y="35.94" width="45.51" height="35.33" rx="3.86"/><rect class="cls-90" x="220.85" y="39.97" width="31.63" height="24.55" rx="2.68"/><path class="cls-91" d="M387.8,135.64H357.57a.69.69,0,0,1-.7-.69h0a.7.7,0,0,1,.7-.7H387.8a.7.7,0,0,1,.7.7h0A.69.69,0,0,1,387.8,135.64Z" transform="translate(-136.02 -67.58)"/><path class="cls-92" d="M388.5,135a.69.69,0,0,1-.69.69H367.47v-1.39h20.34A.69.69,0,0,1,388.5,135Z" transform="translate(-136.02 -67.58)"/><circle class="cls-93" cx="231.45" cy="67.36" r="1.86"/><path class="cls-94" d="M368.53,135a1.06,1.06,0,1,1-1.06-1.06A1.06,1.06,0,0,1,368.53,135Z" transform="translate(-136.02 -67.58)"/><path class="cls-95" d="M369.86,115.14a.34.34,0,0,0-.28.34v7.32a2.25,2.25,0,0,0-1.88.13,1.61,1.61,0,1,0,1.37,2.76,2,2,0,0,0,1.25-2h0v-6.78l6.49-1.21v5.64a2.27,2.27,0,0,0-1.89.12,1.61,1.61,0,1,0,1.38,2.77,2,2,0,0,0,1.25-2h0V114.1a.34.34,0,0,0-.4-.33Z" transform="translate(-136.02 -67.58)"/><rect class="cls-96" x="135.46" y="10.46" width="47.55" height="36.32" rx="4"/><rect class="cls-97" x="138.12" y="12.5" width="42.23" height="32.25" rx="2.44"/><path class="cls-98" d="M284,89.39s.16-1.12.55-1.33a16.94,16.94,0,0,1,3.94-1c.8,0,1.25,1.46,1.25,1.46Z" transform="translate(-136.02 -67.58)"/><path class="cls-99" d="M305.89,89.39s-.16-1.12-.55-1.33a16.94,16.94,0,0,0-3.94-1c-.8,0-1.25,1.46-1.25,1.46Z" transform="translate(-136.02 -67.58)"/><path class="cls-19" d="M307.62,90.54c-1.81-2.72-10.92-2.94-12.68-3s-10.86.23-12.68,3c-1.28,1.92-4.36,13.09-4.1,14s4,1.49,5.46,0a15.93,15.93,0,0,0,1.95-2.7,4.83,4.83,0,0,1,5.22-2.19,14,14,0,0,0,8.31,0,4.81,4.81,0,0,1,5.21,2.19,16.49,16.49,0,0,0,2,2.7c1.49,1.49,5.22.87,5.46,0S308.91,92.46,307.62,90.54Z" transform="translate(-136.02 -67.58)"/><path class="cls-100" d="M292.42,97.25a1.78,1.78,0,1,1-1.78-1.78A1.78,1.78,0,0,1,292.42,97.25Z" transform="translate(-136.02 -67.58)"/><path class="cls-101" d="M301,97.25a1.78,1.78,0,1,1-1.78-1.78A1.78,1.78,0,0,1,301,97.25Z" transform="translate(-136.02 -67.58)"/><path class="cls-102" d="M286.93,93.17h-.6v-.6a1.12,1.12,0,0,0-2.23,0v.6h-.6a1.12,1.12,0,0,0,0,2.23h.6V96a1.12,1.12,0,0,0,2.23,0v-.6h.6a1.12,1.12,0,0,0,0-2.23Z" transform="translate(-136.02 -67.58)"/><path class="cls-103" d="M305.3,92.57a1.11,1.11,0,1,1-1.11-1.11A1.11,1.11,0,0,1,305.3,92.57Z" transform="translate(-136.02 -67.58)"/><path class="cls-104" d="M305.3,96a1.11,1.11,0,1,1-1.11-1.1A1.11,1.11,0,0,1,305.3,96Z" transform="translate(-136.02 -67.58)"/><path class="cls-105" d="M305.91,95.39a1.11,1.11,0,1,1,1.1-1.1A1.11,1.11,0,0,1,305.91,95.39Z" transform="translate(-136.02 -67.58)"/><path class="cls-106" d="M302.47,95.39a1.11,1.11,0,1,1,1.11-1.1A1.11,1.11,0,0,1,302.47,95.39Z" transform="translate(-136.02 -67.58)"/><line class="cls-107" y1="327.61" x2="480.04" y2="327.61"/><line class="cls-108" x1="236.67" y1="146.42" x2="236.67" y2="65.31"/><line class="cls-108" x1="219.22" y1="150.58" x2="219.22" y2="98.48"/><line class="cls-108" x1="186.49" y1="98.48" x2="219.22" y2="98.48"/><line class="cls-108" x1="274.6" y1="123.65" x2="274.6" y2="163.02"/><line class="cls-108" x1="351.25" y1="107.98" x2="351.25" y2="196.62"/><line class="cls-108" x1="285.86" y1="195.42" x2="351.25" y2="195.78"/><line class="cls-108" x1="183.01" y1="26.7" x2="202.48" y2="26.7"/><line class="cls-108" x1="202.48" y1="164.56" x2="202.48" y2="26.7"/><line class="cls-108" x1="306.04" y1="44.75" x2="306.04" y2="177.22"/><line class="cls-108" x1="306.04" y1="177.22" x2="283.01" y2="177.22"/><line class="cls-108" x1="192.41" y1="193.54" x2="149.2" y2="193.54"/><line class="cls-108" x1="126.5" y1="106.47" x2="149.2" y2="106.47"/><line class="cls-108" x1="149.2" y1="193.54" x2="149.2" y2="106.34"/></g></g></svg>